<svg width="578" height="605" viewBox="0 0 578 605" fill="none" xmlns="http://www.w3.org/2000/svg">
<path d="M479 448.5C488.735 444.017 490.286 441.072 487.632 430.614C484.442 418.046 481.329 405.457 478.179 392.878C477.303 389.38 476.258 386.705 471.444 387.989C453.898 392.666 437.614 381.534 432.474 365.961C427.214 350.02 435.994 331.152 451.911 324.08C453.576 323.341 455.301 322.686 457.056 322.209C460.449 321.287 461.451 319.528 460.493 315.942C457.326 304.071 454.475 292.116 451.535 279.816C460.102 277.335 468.626 275.184 477.176 273.14C484.934 271.286 491.5 275.501 493.12 283.327C495.677 295.673 498.168 308.032 500.734 320.376C501.492 324.024 500.324 326.164 496.749 327.753C492.252 329.752 487.518 331.881 483.916 335.105C473.269 344.635 470.523 359.181 476.101 371.446C481.329 382.94 494.815 391.433 508.889 388.696C512.313 388.03 514.383 389.92 515.031 393.056C518.692 410.776 522.338 428.5 525.768 446.265C527.157 453.461 521.612 461.855 514.222 464.062C504.516 466.961 494.156 470.602 484 473C483.164 468.668 480.718 464.747 477 465C469.372 465.519 469.27 458.63 465.5 455.5C468.282 453.512 469.856 452.031 472 450.5C472.418 450.472 473.581 449.779 474.5 450C476.245 449.545 477.5 449 479 448.5Z" fill="#1F145E"/>
<circle cx="261" cy="250" r="92" fill="#5F3DAE"/>
<path d="M158.565 187.457C156.927 191.645 153.358 197.114 151.009 201.498C132.509 200.998 116.248 200.266 98.2567 200.318C94.1699 200.33 90.8716 198.726 90.7114 194.806C90.6159 192.468 89.9174 188.784 94 188C95.7154 187.285 97.309 187.266 98.629 187.268C118.455 187.3 138.282 187.363 158.565 187.457Z" fill="#F8F6FB"/>
<path d="M240 122C248.653 122.318 259 123.5 268.5 124C263.922 125.912 257.078 128.539 251.967 130.023C248.526 131.022 243.531 131.516 239.5 132C240 127.5 239.951 125.33 240 122Z" fill="#5535A3"/>
<path d="M240.034 115C252.686 114.587 265.644 115.33 278.829 115.344C279.255 120.362 279.203 125.37 279.119 130.842C278.151 129.664 277.214 128.022 275.776 125.502C273.851 125.225 270.861 124.795 267.021 124.385C257.591 123.61 248.584 122.796 240.004 122C239.974 120.046 240.119 117.373 240.034 115Z" fill="#1C1054"/>
<path d="M395.725 20.767C468.504 50.5177 518.153 103.104 550.03 173.576C570.384 218.576 579.086 265.927 577.112 315.117C574.595 377.853 554.965 434.934 518.396 486.05C485.079 532.619 441.586 566.122 388 586.258C349.055 600.893 308.715 606.677 267.223 602.947C186.057 595.649 120.285 559.12 69.0977 496.384C32.011 450.93 9.36658 398.485 2.59432 340.346C-9.45496 236.906 20.2296 147.131 96.6335 74.995C139.119 34.8831 190.573 11.8135 248.313 3.15999C298.863 -4.41582 347.909 1.69844 395.725 20.767ZM240 123C240.023 125.852 240 128.5 240 132C230.825 134.773 221.025 136.757 212.237 140.45C189.312 150.086 172.157 166.612 158.099 187.42C138.272 187.364 123.826 187.532 104 187.5C102.68 187.498 100 187.5 98.2471 187.5C92.5 187.5 90.9045 192.162 91 194.5C91.1602 198.42 94.1603 200.332 98.2471 200.32C116.238 200.268 134.229 200.369 152.118 201.139C143.132 222.269 139.923 244.194 143.199 266.973C147.359 295.89 160.091 320.26 181.939 339.795C184.226 341.84 187.334 343.666 189 346.5C176.59 350.3 163.037 354.749 150.606 358.478C142.171 361.008 139.454 365.72 141.829 374.345C145.14 386.374 148.544 398.377 151.875 410.401C153.849 417.526 153.82 417.534 160.811 416.465C178.651 413.736 194.801 423.822 198.965 440.294C203.218 457.115 193.469 474.494 176.293 480.107C171.983 481.516 170.817 483.571 172.022 487.826C176.01 501.91 179.664 516.091 183.797 530.132C184.523 532.601 186.939 534.572 187.758 537.047C185.845 537.698 183.932 538.348 182.019 538.998C182.017 539.502 182.015 540.007 182.013 540.511C183.744 541.098 185.45 542.101 187.209 542.204C200.149 542.964 213.096 543.961 226.048 544.097C257.681 544.429 289.32 544.629 320.952 544.317C344.725 544.082 368.492 543.012 392.257 542.175C394.218 542.106 396.142 540.976 398.083 540.339C397.999 539.771 397.914 539.202 397.829 538.634C396.328 538.205 394.844 537.484 393.322 537.394C381.713 536.701 370.122 536.242 358.5 536C332.215 535.452 305.789 535.359 279.5 535C278.656 534.988 276.255 535.124 274.5 535C276.482 534.046 279.161 532.785 280.961 532.302C285.696 530.959 290.19 529.323 295.5 528C295.993 527.751 296.727 527.794 298.006 527.489C300.727 526.753 303.448 526.017 306.924 525.25C310.006 524.288 313.087 523.327 316.966 522.338C326.395 519.646 335.848 517.039 345.247 514.248C386.359 502.038 427.458 489.783 468.545 477.489C469.884 477.089 471.043 476.086 472.874 475.344C473.615 475.154 474.357 474.964 475.933 474.749C478.688 473.973 481.444 473.198 484.991 472.384C494.738 469.621 504.516 466.961 514.222 464.062C521.612 461.855 527.157 453.461 525.768 446.265C522.338 428.5 518.692 410.775 515.031 393.056C514.383 389.92 512.313 388.03 508.889 388.696C494.815 391.433 481.329 382.94 476.101 371.446C470.523 359.181 473.269 344.635 483.916 335.105C487.518 331.881 492.252 329.752 496.749 327.753C500.324 326.164 501.492 324.023 500.734 320.376C498.168 308.032 495.677 295.673 493.12 283.327C491.5 275.501 484.934 271.285 477.176 273.14C468.626 275.184 460.102 277.335 451.149 278.85C447.076 273.024 444.253 271.964 437.653 273.855C415.157 280.299 392.664 286.756 370.259 292.469C382.704 254.606 379.541 218.45 358.44 184.248C356.297 180.775 352.284 177.035 352.655 173.827C353.04 170.499 357.654 167.619 360.508 164.628C364.246 160.712 364.395 157.35 360.484 153.4C357.329 150.213 353.9 147.294 350.557 144.297C345.873 140.098 342.51 140.254 338.175 144.963C335.613 147.745 333.196 150.662 330.935 153.265C323.353 149.057 316.55 144.419 309.099 141.359C299.351 137.355 288.975 135.721 279 131.5C279.052 126.492 279 120.5 278.753 115.308C282.411 115.306 287.513 115.474 291.163 115.308C295.92 115.093 299.048 112.124 299.145 107.476C299.308 99.6648 299.335 91.8443 299.134 84.0351C298.989 78.4034 295.841 75.3179 290.381 75.2994C270.097 75.2305 249.813 75.2248 229.53 75.3169C224.277 75.3407 221.16 78.4811 221.066 83.7364C220.926 91.548 220.941 99.366 221.086 107.178C221.179 112.197 224.219 115.177 229.223 115.352C232.875 115.479 235.5 115 240.251 115.352C240.282 117.306 240.114 120.09 240 123ZM408.245 125.871C406.574 127.067 404.903 128.262 403.232 129.458C404.888 130.636 406.461 131.963 408.226 132.946C409.661 133.745 411.3 134.219 412.892 134.687C421.356 137.176 426.339 142.851 428.302 151.344C428.451 151.99 428.621 152.653 428.915 153.24C430.42 156.247 431.969 159.231 433.503 162.223C435.072 159.323 437.264 156.591 438.095 153.494C440.705 143.76 445.868 136.855 456.01 134.02C458.933 133.203 461.44 130.901 464.137 129.28C461.485 127.801 458.989 125.817 456.15 124.936C446.811 122.036 440.499 116.521 438.53 106.618C438.143 104.674 437.514 102.73 436.666 100.943C435.937 99.4064 434.736 98.0939 433.744 96.6823C432.627 98.1791 431.363 99.5918 430.443 101.201C429.801 102.326 429.518 103.698 429.267 104.997C427.067 116.386 420.124 123.06 408.245 125.871ZM75.6936 227.384C72.6974 227.403 69.6997 227.369 66.7054 227.455C61.9859 227.589 59.06 230.233 59.115 234.21C59.167 237.966 61.9677 240.458 66.5749 240.471C84.3858 240.52 102.197 240.517 120.008 240.445C125.325 240.424 128.287 237.84 128.109 233.761C127.931 229.67 124.998 227.454 119.633 227.442C105.317 227.408 91.0018 227.4 75.6936 227.384ZM81.8416 279.151C83.9601 279.899 86.0688 281.257 88.1988 281.292C99.8576 281.48 111.522 281.381 123.184 281.301C127.982 281.268 131.015 278.689 131.073 274.849C131.132 270.903 128.192 268.363 123.302 268.347C111.474 268.308 99.6446 268.298 87.8162 268.37C80.9986 268.412 78.7571 272.011 81.8416 279.151Z" fill="#6C47BD"/>
<path d="M421.658 118.881C425.119 115.8 426.44 111.834 427.581 107.822C428.772 103.632 429.642 99.3509 430.937 95.195C431.315 93.9803 431.955 92 433.57 92C435.184 92 436.028 94.0131 436.429 95.2734C438.138 100.644 439.427 106.143 441.067 111.537C442.706 116.931 446.467 120.516 451.801 122.418C456.155 123.971 460.635 125.188 464.959 126.813C466.158 127.264 468 127.467 468 129.589C468 131.639 466.192 131.971 464.997 132.423C461.245 133.844 457.362 134.938 453.51 136.097C446.578 138.183 442.177 142.679 440.217 149.485C438.957 153.859 437.759 158.249 436.59 162.647C436.148 164.308 435.56 166.063 433.661 165.998C431.955 166.063 431.223 163.881 430.755 162.499C429.075 157.535 427.873 152.416 426.193 147.453C424.438 142.265 420.768 138.732 415.457 136.953C411.074 135.485 406.62 134.206 402.306 132.568C401.017 132.079 399 131.36 399 129.674C399 127.988 401.03 127.226 402.333 126.732C406.179 125.272 410.242 124.361 414.084 122.893C416.674 121.904 419.034 120.337 421.658 118.881Z" fill="#F9FAFD"/>
<path d="M227.118 335.231C214.436 338.994 201.755 342.757 188.676 346.516C186.172 344.263 184.224 341.84 181.937 339.795C160.089 320.26 147.357 295.89 143.198 266.973C139.921 244.194 142.208 221.727 151.5 200C153.9 195.254 156.404 191.15 158.498 187C171.644 166.114 189.31 150.086 212.235 140.45C221.023 136.757 230.522 134.754 240.433 131.701C244.998 130.5 248.557 129.499 251.998 128.5C257.109 127.016 261.498 126 267.395 124.395C270.824 124.795 273.814 125.225 275.739 125.501C277.498 128 277.998 129 278.998 130.5C289.038 133.793 299.349 137.355 309.097 141.359C316.548 144.419 323.351 149.057 330.933 153.265C333.194 150.662 335.611 147.745 338.173 144.963C342.508 140.254 345.871 140.098 350.555 144.297C353.898 147.294 357.327 150.213 360.482 153.4C364.393 157.35 364.244 160.712 360.506 164.629C357.652 167.619 353.038 170.499 352.653 173.827C352.282 177.035 356.295 180.775 358.438 184.248C379.539 218.45 382.703 254.606 370.213 292.838C358.128 296.806 346.088 300.404 333.701 303.645C340.768 290.598 346.523 277.263 348.87 262.653C349.918 256.127 350.856 249.554 348.083 242.768C348.12 239.623 348.619 236.777 348.093 234.135C347.057 228.933 345.745 223.744 344.034 218.724C332.089 183.667 298.211 158.783 262.085 158.373C214.519 157.832 175.102 192.902 170.483 240.374C167.642 269.576 176.776 294.803 197.429 315.751C200.036 318.395 202.744 320.96 206.941 319.927C207.151 321.511 206.988 323.472 207.746 323.939C214.107 327.859 220.638 331.504 227.118 335.231Z" fill="#1F145D"/>
<path d="M472.373 450.5C470.619 452.035 468.475 453.566 465.693 455.554C469.463 458.684 469.665 465.364 477.292 464.845C481.01 464.592 483.56 468.149 484 472.5C481.257 473.66 476 475 476 475L474.5 475.5L472 476.5L468.133 477.724C468.133 477.724 385.947 502.273 344.835 514.483C335.436 517.275 316.588 522.735 316.588 522.735L310.088 524.249L306 525.5L297.588 527.735L296 528L294.754 528.507C294.754 528.507 285.635 531.525 280.5 532.5C277.104 527.425 273.757 522.118 270.5 517C277 515 286 512 286 512C286 512 292.579 510.019 296.667 508.75C301.399 507.282 306.162 505.913 311.121 504.439C310.177 503.678 309.5 503 308.5 502C328.929 495.406 349.577 489.263 370.033 482.755C404 471.95 437.998 461.244 472.373 450.5Z" fill="#1B1156"/>
<path d="M240.195 115.319C236.537 115.34 232.876 115.479 229.223 115.352C224.219 115.178 221.179 112.198 221.086 107.178C220.941 99.3663 220.926 91.5483 221.066 83.7367C221.16 78.4815 224.278 75.3411 229.53 75.3172C249.813 75.2251 270.097 75.2309 290.381 75.2997C295.841 75.3183 298.989 78.4037 299.134 84.0355C299.335 91.8446 299.308 99.6651 299.145 107.476C299.048 112.125 295.921 115.093 291.163 115.309C287.513 115.474 283.849 115.345 279.254 115.341C265.609 115.33 252.902 115.324 240.195 115.319Z" fill="#201560"/>
<path d="M308.5 502C309.232 502.731 310.5 503.5 311.5 504.5C306.549 506.003 296.398 508.846 296.398 508.846L285.914 512.413C285.914 512.413 277.566 515.226 271 517C274.649 521.965 277.5 527 281.5 532C280.002 532.51 277.582 533.582 275.603 534.554C277.355 534.68 278.197 534.784 279.04 534.795C305.289 535.162 331.54 535.382 357.785 535.941C369.39 536.188 382.408 536.529 394 537.236C395.519 537.328 397.5 537.5 398.5 538.5C399 539 399 539.5 398.754 540.238C398 541.5 394.895 542.039 392.936 542.109C389 542.5 344.051 544.602 320.314 544.841C288.731 545.159 257.139 544.955 225.555 544.618C212.622 544.479 199.576 544.053 186.656 543.278C184.899 543.173 182.662 542.769 181.665 541.75C181.322 541.399 181.152 540.221 181.593 539.42C182.156 538.182 185.261 537.635 187.731 537.292C192.185 536.674 196.414 536.808 200.252 535.622C236.126 524.543 272.286 513.238 308.5 502Z" fill="#1E145C"/>
<path d="M76.191 227.383C91.0028 227.4 105.318 227.408 119.634 227.442C124.999 227.454 127.932 229.67 128.11 233.761C128.288 237.84 125.326 240.424 120.009 240.445C102.198 240.517 84.3867 240.52 66.5759 240.471C61.9687 240.458 59.168 237.966 59.116 234.21C59.0609 230.233 61.9869 227.589 66.7064 227.455C69.7007 227.369 72.6984 227.403 76.191 227.383Z" fill="#F9F8FC"/>
<path d="M81.013 279C79.2351 270.833 81.0088 268.413 87.8264 268.371C99.6547 268.298 111.484 268.309 123.313 268.347C128.202 268.363 131.142 270.904 131.083 274.85C131.025 278.69 127.992 281.269 123.194 281.302C111.532 281.382 99.8677 281.481 88.209 281.293C86.0789 281.258 81.5084 281.293 81.013 279Z" fill="#F8F6FB"/>
<path d="M338.654 370.757C307.452 380.47 276.628 390.051 245.792 399.593C239.067 401.675 234.91 399.93 233.355 394.552C231.857 389.371 234.697 385.322 241.068 383.327C285.375 369.451 329.674 355.55 373.978 341.662C375.725 341.114 377.474 340.561 379.248 340.108C384.429 338.784 388.442 340.855 389.922 345.563C391.308 349.968 388.969 354.775 384.265 356.319C373.828 359.747 363.316 362.946 352.837 366.244C348.232 367.694 343.63 369.156 338.654 370.757Z" fill="#1F155C"/>
<path d="M308.457 407.689C325.024 402.523 341.206 397.465 357.403 392.459C363.393 390.608 367.486 392.4 369.02 397.398C370.578 402.471 368.302 406.661 362.585 408.435C327.178 419.425 291.753 430.359 256.308 441.228C250.951 442.871 246.612 440.541 245.22 435.738C243.915 431.235 246.262 427.038 251.398 425.422C270.27 419.488 289.181 413.676 308.457 407.689Z" fill="#1F145E"/>
<path d="M308.946 460.955C294.562 465.383 280.56 469.705 266.538 473.96C260.689 475.735 256.375 474.002 255.02 469.496C253.52 464.511 256.029 460.453 261.796 458.686C278.515 453.563 295.23 448.43 311.973 443.388C317.515 441.72 321.086 443.137 322.867 447.364C324.716 451.75 322.918 456.214 318.37 457.966C315.423 459.101 312.341 459.882 308.946 460.955Z" fill="#201560"/>
<path d="M209.496 309.578C211.472 313.344 211.328 316.655 207.217 319.387C202.746 320.96 200.038 318.396 197.431 315.751C176.777 294.804 167.643 269.577 170.485 240.374C175.104 192.902 214.521 157.833 262.086 158.373C298.212 158.784 332.091 183.667 344.036 218.725C345.746 223.745 347.059 228.933 348.095 234.135C348.621 236.777 348.121 239.624 348.085 242.768C345.755 243.908 342.788 245.888 341.256 245.096C339.326 244.097 338.226 240.952 337.383 238.52C336.001 234.535 335.115 230.378 333.647 225.781C330.94 219.858 328.605 214.447 326.272 208.698C324.892 206.244 323.511 204.127 322.001 201.664C320.099 199.309 318.327 197.299 316.435 195.017C297.13 175.168 273.89 167.344 246.889 171.57C234.498 173.509 222.968 178.115 212.932 186.373C212.375 186.572 212.185 186.822 211.846 187.261C211.313 187.643 211.06 187.935 210.499 188.33C206.463 192.406 202.735 196.38 198.726 200.527C190.399 210.946 185.393 222.524 183.117 235.757C180.178 252.106 181.511 267.536 188.864 282.523C189.21 283.11 189.495 283.385 189.78 283.691C189.78 283.72 189.771 283.779 189.751 284.136C194.288 294.456 200.537 303.085 209.496 309.578Z" fill="#F5F4F9"/>
<path d="M313.916 502.685C314.164 502.699 314.3 502.832 314.435 502.965C314.224 502.911 314.013 502.856 313.916 502.685Z" fill="#1E145C"/>
<path d="M188.865 282.522C189.133 282.478 189.46 282.744 189.785 283.336C189.496 283.385 189.21 283.11 188.865 282.522Z" fill="#492C96"/>
<path d="M211.847 187.261C211.882 187.472 211.636 187.774 211.099 188.152C211.062 187.935 211.314 187.643 211.847 187.261Z" fill="#51329F"/>
<path d="M253.575 263.124C248.525 259.589 245.529 255.272 245.798 248.775C247.803 245.025 249.861 241.698 252.128 238.137C252.84 236.293 253.757 234.687 253.778 233.07C253.931 220.925 253.887 208.778 253.947 196.632C253.976 190.873 256.078 188.042 260.083 188.188C264.054 188.332 266.08 191.27 266.057 196.874C266.009 208.687 265.951 220.5 265.903 232.313C265.877 238.628 271.474 244.175 277.905 244.188C281.066 244.194 284.236 244.287 287.386 244.087C291.025 243.855 293.544 245.071 294.786 249.018C294.581 254.615 291.626 256.926 286.433 256.748C283.954 256.663 281.452 256.92 278.989 256.7C274.993 256.342 271.969 257.212 269.078 260.532C265.077 265.127 259.561 265.348 253.575 263.124Z" fill="#F8F6FB"/>
<path d="M370.17 293.208C392.664 286.756 415.157 280.3 437.653 273.856C444.253 271.965 447.076 273.025 451.326 279.522C454.475 292.117 457.326 304.072 460.493 315.942C461.451 319.529 460.449 321.288 457.056 322.209C455.301 322.686 453.576 323.341 451.911 324.081C435.994 331.153 427.214 350.021 432.474 365.961C437.614 381.535 453.897 392.667 471.444 387.989C476.258 386.706 477.303 389.381 478.179 392.879C481.329 405.458 484.442 418.046 487.632 430.615C490.286 441.073 488.9 444.088 478.832 448.555C477.363 449.078 476.229 449.617 474.762 450.171C474.012 450.213 473.594 450.241 472.785 450.265C438.411 461.01 404.412 471.715 370.445 482.521C349.989 489.029 329.583 495.692 308.766 502.284C272.497 513.31 236.929 524.63 201 535.5C196.793 536.228 191.554 536.531 187.5 537C186 534.5 185 532.5 183.797 530.133C179.664 516.092 176.01 501.911 172.022 487.827C170.817 483.572 171.983 481.516 176.293 480.108C193.469 474.494 203.218 457.115 198.965 440.295C194.801 423.823 178.651 413.737 160.811 416.466C153.82 417.535 153.849 417.527 151.875 410.401C148.544 398.378 145.14 386.375 141.829 374.346C139.454 365.721 142.171 361.009 150.606 358.479C163.037 354.749 175.431 350.897 188.458 346.809C201.757 342.758 214.438 338.995 227.503 335.236C235.713 332.938 243.543 330.649 251.364 328.331C278.649 320.247 305.931 312.152 333.632 304.032C346.09 300.405 358.13 296.806 370.17 293.208ZM339.027 370.613C343.63 369.157 348.231 367.694 352.836 366.245C363.315 362.947 373.827 359.748 384.264 356.32C388.968 354.775 391.307 349.968 389.922 345.564C388.441 340.856 384.428 338.785 379.247 340.109C377.473 340.562 375.724 341.115 373.977 341.663C329.674 355.551 285.374 369.452 241.067 383.328C234.696 385.323 231.856 389.372 233.354 394.552C234.909 399.931 239.066 401.676 245.791 399.594C276.627 390.052 307.451 380.47 339.027 370.613ZM308.077 407.819C289.181 413.677 270.27 419.488 251.398 425.423C246.262 427.038 243.915 431.236 245.22 435.738C246.612 440.541 250.95 442.871 256.308 441.228C291.753 430.359 327.177 419.425 362.585 408.435C368.302 406.661 370.577 402.471 369.02 397.398C367.485 392.4 363.392 390.608 357.403 392.459C341.205 397.465 325.024 402.523 308.077 407.819ZM309.319 460.822C312.34 459.882 315.423 459.101 318.369 457.966C322.917 456.215 324.715 451.751 322.866 447.364C321.085 443.138 317.515 441.72 311.973 443.389C295.23 448.43 278.514 453.563 261.796 458.686C256.029 460.453 253.519 464.512 255.019 469.496C256.375 474.002 260.689 475.735 266.537 473.961C280.56 469.705 294.561 465.384 309.319 460.822Z" fill="#FCFCFD"/>
</svg>
