<svg width="155" height="100" viewBox="0 0 155 100" fill="none" xmlns="http://www.w3.org/2000/svg">
<mask id="mask0_8197_124729" style="mask-type:luminance" maskUnits="userSpaceOnUse" x="61" y="0" width="86" height="99">
<path d="M72.5836 30.0195C57.1148 55.0686 58.6253 84.0043 75.9605 94.6483C93.2878 105.292 119.876 93.6151 135.345 68.566C150.813 43.5169 149.311 14.5812 131.976 3.93728C114.648 -6.70668 88.0524 4.97044 72.5836 30.0195Z" fill="white"/>
</mask>
<g mask="url(#mask0_8197_124729)">
<path d="M176.831 98.9199V-0.247238H36.75V98.9199H176.831Z" fill="#70D0E9"/>
<path fill-rule="evenodd" clip-rule="evenodd" d="M36.75 43.0586H106.581V-0.247543H36.75V43.0586Z" fill="#28357B"/>
<path d="M133.86 44.0057C133.86 44.0057 133.86 59.2153 133.86 63.5247C133.86 67.8411 128.245 72.1567 122.084 74.7246C115.923 72.1567 110.316 67.8411 110.316 63.5247C110.316 59.2153 110.316 44.0057 110.316 44.0057H133.86Z" fill="#EB1A2F"/>
<path d="M133.86 44.0057C133.86 44.0057 133.86 59.2153 133.86 63.5247C133.86 67.8411 128.245 72.1567 122.084 74.7246C115.923 72.1567 110.316 67.8411 110.316 63.5247C110.316 59.2153 110.316 44.0057 110.316 44.0057H133.86Z" stroke="#231F20" stroke-width="0.0445622"/>
<path d="M119.878 73.7148C114.65 71.1083 110.316 67.3203 110.316 63.526H119.878V73.7148Z" fill="white"/>
<path d="M119.878 73.7148C114.65 71.1083 110.316 67.3203 110.316 63.526H119.878V73.7148Z" stroke="#231F20" stroke-width="0.0445622"/>
<path d="M110.316 59.1309C110.316 56.8445 110.316 54.2829 110.316 51.9839H119.878V59.1309H110.316Z" fill="white"/>
<path d="M110.316 59.1309C110.316 56.8445 110.316 54.2829 110.316 51.9839H119.878V59.1309H110.316Z" stroke="#231F20" stroke-width="0.0445622"/>
<path d="M124.289 73.7148C129.524 71.1083 133.858 67.3203 133.858 63.526H124.289V73.7148Z" fill="white"/>
<path d="M124.289 73.7148C129.524 71.1083 133.858 67.3203 133.858 63.526H124.289V73.7148Z" stroke="#231F20" stroke-width="0.0445622"/>
<path d="M133.858 59.1309C133.858 56.8445 133.858 54.2829 133.858 51.9839H124.289V59.1309H133.858Z" fill="white"/>
<path d="M133.858 59.1309C133.858 56.8445 133.858 54.2829 133.858 51.9839H124.289V59.1309H133.858Z" stroke="#231F20" stroke-width="0.0445622"/>
<path d="M130.086 65.0569C130.584 64.6183 131.747 64.5695 132.15 64.8621C132.237 64.9283 132.411 64.8715 132.427 64.5497C132.443 64.228 132.308 64.0481 131.85 64.0552C131.383 64.0623 130.268 63.9992 129.533 64.7587C129.153 65.1523 129.715 65.3147 130.086 65.0569Z" fill="#B02A24"/>
<path d="M130.086 65.0569C130.584 64.6183 131.747 64.5695 132.15 64.8621C132.237 64.9283 132.411 64.8715 132.427 64.5497C132.443 64.228 132.308 64.0481 131.85 64.0552C131.383 64.0623 130.268 63.9992 129.533 64.7587C129.153 65.1523 129.715 65.3147 130.086 65.0569Z" stroke="#231F20" stroke-width="0.0445622"/>
<path d="M126.69 69.4177C126.524 69.5636 126.263 70.0494 126.152 70.2434C126.034 70.4374 125.883 70.5691 125.52 70.6866C124.926 70.8759 125.322 71.0755 124.871 71.7734C125.148 71.7561 125.512 71.6204 125.646 71.4832C125.749 71.6118 125.875 71.708 125.962 71.7348C125.986 71.5471 126.271 71.4737 126.263 71.3625C126.303 71.4651 126.429 71.5944 126.516 71.6551C126.556 71.5345 126.745 71.2789 126.896 71.1875C126.888 71.0479 126.753 71.0565 126.745 70.7442C126.737 70.4327 126.548 70.3105 126.951 69.9051C127.259 69.5888 127.204 68.9121 126.69 69.4177Z" fill="#B02A24"/>
<path d="M126.69 69.4177C126.524 69.5636 126.263 70.0494 126.152 70.2434C126.034 70.4374 125.883 70.5691 125.52 70.6866C124.926 70.8759 125.322 71.0755 124.871 71.7734C125.148 71.7561 125.512 71.6204 125.646 71.4832C125.749 71.6118 125.875 71.708 125.962 71.7348C125.986 71.5471 126.271 71.4737 126.263 71.3625C126.303 71.4651 126.429 71.5944 126.516 71.6551C126.556 71.5345 126.745 71.2789 126.896 71.1875C126.888 71.0479 126.753 71.0565 126.745 70.7442C126.737 70.4327 126.548 70.3105 126.951 69.9051C127.259 69.5888 127.204 68.9121 126.69 69.4177Z" stroke="#231F20" stroke-width="0.0445622"/>
<path d="M132.15 64.8613C132.007 64.7698 132.047 64.4891 132.071 64.3842C132.086 64.2793 132.173 64.09 132.268 64.1452" stroke="#231F20" stroke-width="0.0445622"/>
<path d="M125.648 71.4805C125.688 71.4442 125.696 71.3503 125.696 71.15" stroke="#231F20" stroke-width="0.0445622"/>
<path d="M126.266 71.3613C126.274 71.2556 126.345 71.1153 126.345 70.9599" stroke="#231F20" stroke-width="0.0445622"/>
<path d="M131.365 66.3928C131.065 66.1602 130.748 66.7012 130.463 67.0648C130.179 67.4291 129.847 67.9575 130.029 68.1034C130.218 68.2493 130.748 67.8897 131.033 67.5254C131.318 67.1618 131.666 66.6247 131.365 66.3928Z" fill="#FAE235"/>
<path d="M131.365 66.3928C131.065 66.1602 130.748 66.7012 130.463 67.0648C130.179 67.4291 129.847 67.9575 130.029 68.1034C130.218 68.2493 130.748 67.8897 131.033 67.5254C131.318 67.1618 131.666 66.6247 131.365 66.3928Z" stroke="#231F20" stroke-width="0.0445622"/>
<path d="M131.198 66.0591C130.922 65.7925 130.542 66.2917 130.218 66.6198C129.894 66.9479 129.498 67.4329 129.664 67.6001C129.838 67.7673 130.4 67.4724 130.724 67.1443C131.048 66.8162 131.467 66.3249 131.198 66.0591Z" fill="#FAE235"/>
<path d="M131.198 66.0591C130.922 65.7925 130.542 66.2917 130.218 66.6198C129.894 66.9479 129.498 67.4329 129.664 67.6001C129.838 67.7673 130.4 67.4724 130.724 67.1443C131.048 66.8162 131.467 66.3249 131.198 66.0591Z" stroke="#231F20" stroke-width="0.0445622"/>
<path d="M130.915 65.6892C130.647 65.4234 130.267 65.9218 129.943 66.2499C129.611 66.578 129.199 67.1853 129.373 67.3525C129.539 67.5197 130.125 67.1025 130.449 66.7744C130.773 66.4471 131.184 65.955 130.915 65.6892Z" fill="#FAE235"/>
<path d="M130.915 65.6892C130.647 65.4234 130.267 65.9218 129.943 66.2499C129.611 66.578 129.199 67.1853 129.373 67.3525C129.539 67.5197 130.125 67.1025 130.449 66.7744C130.773 66.4471 131.184 65.955 130.915 65.6892Z" stroke="#231F20" stroke-width="0.0445622"/>
<path d="M130.498 65.2529C130.229 64.9871 129.842 65.4856 129.518 65.8137C129.193 66.1418 128.893 66.7656 129.059 66.9336C129.233 67.1 129.723 66.7009 130.047 66.3728C130.372 66.0448 130.767 65.5187 130.498 65.2529Z" fill="#FAE235"/>
<path d="M130.498 65.2529C130.229 64.9871 129.842 65.4856 129.518 65.8137C129.193 66.1418 128.893 66.7656 129.059 66.9336C129.233 67.1 129.723 66.7009 130.047 66.3728C130.372 66.0448 130.767 65.5187 130.498 65.2529Z" stroke="#231F20" stroke-width="0.0445622"/>
<path d="M129.088 64.1968C128.788 63.9657 128.464 64.5067 128.187 64.8719C127.902 65.237 127.72 65.9287 127.91 66.0746C128.092 66.2197 128.432 65.7016 128.709 65.3372C128.993 64.972 129.389 64.4287 129.088 64.1968Z" fill="#FAE235"/>
<path d="M129.088 64.1968C128.788 63.9657 128.464 64.5067 128.187 64.8719C127.902 65.237 127.72 65.9287 127.91 66.0746C128.092 66.2197 128.432 65.7016 128.709 65.3372C128.993 64.972 129.389 64.4287 129.088 64.1968Z" stroke="#231F20" stroke-width="0.0445622"/>
<path d="M129.649 64.4509C129.364 64.2064 129.016 64.7332 128.716 65.0857C128.423 65.4375 128.21 66.1205 128.391 66.2743C128.573 66.4281 128.929 65.9249 129.23 65.5731C129.522 65.2214 129.942 64.6954 129.649 64.4509Z" fill="#FAE235"/>
<path d="M129.649 64.4509C129.364 64.2064 129.016 64.7332 128.716 65.0857C128.423 65.4375 128.21 66.1205 128.391 66.2743C128.573 66.4281 128.929 65.9249 129.23 65.5731C129.522 65.2214 129.942 64.6954 129.649 64.4509Z" stroke="#231F20" stroke-width="0.0445622"/>
<path d="M130.052 64.8491C129.752 64.6133 129.427 65.1496 129.135 65.51C128.85 65.8704 128.51 66.3949 128.692 66.5432C128.882 66.6914 129.317 66.2427 129.601 65.8823C129.894 65.5218 130.345 65.0849 130.052 64.8491Z" fill="#FAE235"/>
<path d="M130.052 64.8491C129.752 64.6133 129.427 65.1496 129.135 65.51C128.85 65.8704 128.51 66.3949 128.692 66.5432C128.882 66.6914 129.317 66.2427 129.601 65.8823C129.894 65.5218 130.345 65.0849 130.052 64.8491Z" stroke="#231F20" stroke-width="0.0445622"/>
<path d="M127.879 65.5499C127.507 65.3851 127.167 65.9877 126.97 66.4427C126.764 66.8986 126.693 67.5879 126.93 67.6912C127.167 67.7945 127.499 67.2062 127.705 66.7503C127.903 66.2952 128.251 65.7148 127.879 65.5499Z" fill="#FAE235"/>
<path d="M127.879 65.5499C127.507 65.3851 127.167 65.9877 126.97 66.4427C126.764 66.8986 126.693 67.5879 126.93 67.6912C127.167 67.7945 127.499 67.2062 127.705 66.7503C127.903 66.2952 128.251 65.7148 127.879 65.5499Z" stroke="#231F20" stroke-width="0.0445622"/>
<path d="M128.385 65.7548C128.013 65.5868 127.673 66.1847 127.467 66.6381C127.262 67.0916 127.016 67.9261 127.254 68.0325C127.483 68.139 127.989 67.4071 128.195 66.9536C128.4 66.5001 128.756 65.9244 128.385 65.7548Z" fill="#FAE235"/>
<path d="M128.385 65.7548C128.013 65.5868 127.673 66.1847 127.467 66.6381C127.262 67.0916 127.016 67.9261 127.254 68.0325C127.483 68.139 127.989 67.4071 128.195 66.9536C128.4 66.5001 128.756 65.9244 128.385 65.7548Z" stroke="#231F20" stroke-width="0.0445622"/>
<path d="M128.734 66.0768C128.394 65.9017 128.18 66.49 127.959 66.8994C127.745 67.3079 127.318 68.0508 127.611 68.203C127.904 68.3552 128.275 67.5847 128.497 67.1754C128.71 66.7669 129.066 66.2519 128.734 66.0768Z" fill="#FAE235"/>
<path d="M128.734 66.0768C128.394 65.9017 128.18 66.49 127.959 66.8994C127.745 67.3079 127.318 68.0508 127.611 68.203C127.904 68.3552 128.275 67.5847 128.497 67.1754C128.71 66.7669 129.066 66.2519 128.734 66.0768Z" stroke="#231F20" stroke-width="0.0445622"/>
<path d="M130.363 67.9295C130.134 67.629 129.715 68.1725 129.351 68.4524C128.979 68.7324 128.418 68.9327 128.615 69.1938C128.821 69.454 129.327 69.1725 129.691 68.8917C130.063 68.6117 130.6 68.23 130.363 67.9295Z" fill="#FAE235"/>
<path d="M130.363 67.9295C130.134 67.629 129.715 68.1725 129.351 68.4524C128.979 68.7324 128.418 68.9327 128.615 69.1938C128.821 69.454 129.327 69.1725 129.691 68.8917C130.063 68.6117 130.6 68.23 130.363 67.9295Z" stroke="#231F20" stroke-width="0.0445622"/>
<path d="M130.225 67.3739C129.846 66.9906 129.482 67.8085 129.142 68.1184C128.794 68.4284 128.256 68.676 128.478 68.9189C128.691 69.1618 129.174 68.8377 129.522 68.5278C129.862 68.2178 130.494 67.6428 130.225 67.3739Z" fill="#FAE235"/>
<path d="M130.225 67.3739C129.846 66.9906 129.482 67.8085 129.142 68.1184C128.794 68.4284 128.256 68.676 128.478 68.9189C128.691 69.1618 129.174 68.8377 129.522 68.5278C129.862 68.2178 130.494 67.6428 130.225 67.3739Z" stroke="#231F20" stroke-width="0.0445622"/>
<path d="M129.833 66.86C129.398 66.5082 129.145 67.121 128.852 67.4806C128.567 67.8395 127.887 68.6842 128.148 68.89C128.401 69.0958 129.097 68.2512 129.39 67.8915C129.675 67.5319 130.133 67.0973 129.833 66.86Z" fill="#FAE235"/>
<path d="M129.833 66.86C129.398 66.5082 129.145 67.121 128.852 67.4806C128.567 67.8395 127.887 68.6842 128.148 68.89C128.401 69.0958 129.097 68.2512 129.39 67.8915C129.675 67.5319 130.133 67.0973 129.833 66.86Z" stroke="#231F20" stroke-width="0.0445622"/>
<path d="M129.293 66.3737C128.889 66.1237 128.707 66.7412 128.462 67.1316C128.209 67.522 127.569 68.4084 127.845 68.5835C128.13 68.7586 128.715 67.8398 128.968 67.4502C129.213 67.0598 129.609 66.5748 129.293 66.3737Z" fill="#FAE235"/>
<path d="M129.293 66.3737C128.889 66.1237 128.707 66.7412 128.462 67.1316C128.209 67.522 127.569 68.4084 127.845 68.5835C128.13 68.7586 128.715 67.8398 128.968 67.4502C129.213 67.0598 129.609 66.5748 129.293 66.3737Z" stroke="#231F20" stroke-width="0.0445622"/>
<path d="M126.843 67.3218C126.519 67.2169 126.416 67.7713 126.289 68.1665C126.163 68.5608 126.044 69.1097 126.242 69.176C126.448 69.2414 126.677 68.7256 126.804 68.3313C126.93 67.937 127.167 67.4267 126.843 67.3218Z" fill="#FAE235"/>
<path d="M126.843 67.3218C126.519 67.2169 126.416 67.7713 126.289 68.1665C126.163 68.5608 126.044 69.1097 126.242 69.176C126.448 69.2414 126.677 68.7256 126.804 68.3313C126.93 67.937 127.167 67.4267 126.843 67.3218Z" stroke="#231F20" stroke-width="0.0445622"/>
<path d="M127.189 67.5924C126.841 67.463 126.698 68.0601 126.54 68.4812C126.382 68.9032 126.224 69.4939 126.445 69.5759C126.659 69.6571 126.936 69.1082 127.094 68.6871C127.252 68.2651 127.537 67.7225 127.189 67.5924Z" fill="#FAE235"/>
<path d="M127.189 67.5924C126.841 67.463 126.698 68.0601 126.54 68.4812C126.382 68.9032 126.224 69.4939 126.445 69.5759C126.659 69.6571 126.936 69.1082 127.094 68.6871C127.252 68.2651 127.537 67.7225 127.189 67.5924Z" stroke="#231F20" stroke-width="0.0445622"/>
<path d="M128.937 69.2321C128.778 69.0105 128.438 69.2771 128.169 69.4695C127.901 69.6612 127.561 69.9561 127.663 70.0949C127.829 70.3284 128.193 70.1067 128.462 69.9159C128.739 69.7235 129.095 69.4529 128.937 69.2321Z" fill="#FAE235"/>
<path d="M128.937 69.2321C128.778 69.0105 128.438 69.2771 128.169 69.4695C127.901 69.6612 127.561 69.9561 127.663 70.0949C127.829 70.3284 128.193 70.1067 128.462 69.9159C128.739 69.7235 129.095 69.4529 128.937 69.2321Z" stroke="#231F20" stroke-width="0.0445622"/>
<path d="M128.605 68.8318C128.281 68.484 128.099 69.0329 127.83 69.2703C127.561 69.5069 127.221 69.8618 127.348 70.0022C127.466 70.1418 127.87 69.857 128.138 69.6204C128.407 69.3838 128.866 69.1165 128.605 68.8318Z" fill="#FAE235"/>
<path d="M128.605 68.8318C128.281 68.484 128.099 69.0329 127.83 69.2703C127.561 69.5069 127.221 69.8618 127.348 70.0022C127.466 70.1418 127.87 69.857 128.138 69.6204C128.407 69.3838 128.866 69.1165 128.605 68.8318Z" stroke="#231F20" stroke-width="0.0445622"/>
<path d="M128.322 68.2402C128.037 67.9784 127.729 68.5644 127.404 68.9138C127.088 69.2639 126.701 69.7774 126.883 69.9422C127.064 70.107 127.539 69.6772 127.863 69.3278C128.179 68.9776 128.615 68.5021 128.322 68.2402Z" fill="#FAE235"/>
<path d="M128.322 68.2402C128.037 67.9784 127.729 68.5644 127.404 68.9138C127.088 69.2639 126.701 69.7774 126.883 69.9422C127.064 70.107 127.539 69.6772 127.863 69.3278C128.179 68.9776 128.615 68.5021 128.322 68.2402Z" stroke="#231F20" stroke-width="0.0445622"/>
<path d="M127.744 67.8894C127.333 67.6606 127.127 68.2687 126.914 68.6804C126.692 69.0921 126.511 69.7128 126.724 69.8248C126.938 69.936 127.286 69.4091 127.499 68.9974C127.713 68.585 128.076 68.0763 127.744 67.8894Z" fill="#FAE235"/>
<path d="M127.744 67.8894C127.333 67.6606 127.127 68.2687 126.914 68.6804C126.692 69.0921 126.511 69.7128 126.724 69.8248C126.938 69.936 127.286 69.4091 127.499 68.9974C127.713 68.585 128.076 68.0763 127.744 67.8894Z" stroke="#231F20" stroke-width="0.0445622"/>
<path d="M112.394 47.085C113.295 48.1348 113.469 49.3406 112.394 50.5H111.548C110.472 49.3406 110.646 48.1348 111.548 47.085H112.394Z" fill="white"/>
<path d="M112.394 47.085C113.295 48.1348 113.469 49.3406 112.394 50.5H111.548C110.472 49.3406 110.646 48.1348 111.548 47.085H112.394Z" stroke="#231F20" stroke-width="0.0442086"/>
<path d="M112.18 47.085C112.623 48.1348 112.71 49.3406 112.18 50.5H111.761C111.239 49.3406 111.318 48.1348 111.761 47.085H112.18Z" stroke="#231F20" stroke-width="0.0442086"/>
<path d="M115.627 46.9232C115.066 46.9493 114.512 46.6022 114.141 46.3846C113.777 46.1669 113.2 46.017 112.946 46.1787C112.432 46.5052 112.353 46.6354 112.171 46.5794C111.847 46.4824 111.752 46.4705 111.483 46.6598C111.199 46.8601 111.175 47.1701 111.254 47.3302C111.286 47.3878 111.349 47.4706 111.428 47.4619C111.468 47.5195 111.555 47.6141 111.657 47.5999C111.618 47.5652 111.555 47.4911 111.547 47.439C111.602 47.4335 111.642 47.3759 111.665 47.3365C111.697 47.3759 111.736 47.428 111.784 47.4453C111.784 47.5195 111.863 47.6567 111.974 47.6914C111.934 47.611 111.942 47.4848 111.982 47.4453C112.013 47.4477 112.061 47.4225 112.077 47.3933C112.1 47.4051 112.187 47.4138 112.219 47.3933C112.243 47.4564 112.266 47.5715 112.251 47.6567C112.33 47.6173 112.432 47.4966 112.432 47.4051C112.622 47.439 112.796 47.3365 112.749 47.1125C112.709 46.8893 112.725 46.786 112.836 46.7347C112.954 46.6827 113.461 46.7576 113.658 46.8775C113.864 46.9982 114.441 47.5076 114.71 47.577C115.762 47.7718 116.221 46.9982 115.627 46.9232Z" fill="#FAE235"/>
<path d="M115.627 46.9232C115.066 46.9493 114.512 46.6022 114.141 46.3846C113.777 46.1669 113.2 46.017 112.946 46.1787C112.432 46.5052 112.353 46.6354 112.171 46.5794C111.847 46.4824 111.752 46.4705 111.483 46.6598C111.199 46.8601 111.175 47.1701 111.254 47.3302C111.286 47.3878 111.349 47.4706 111.428 47.4619C111.468 47.5195 111.555 47.6141 111.657 47.5999C111.618 47.5652 111.555 47.4911 111.547 47.439C111.602 47.4335 111.642 47.3759 111.665 47.3365C111.697 47.3759 111.736 47.428 111.784 47.4453C111.784 47.5195 111.863 47.6567 111.974 47.6914C111.934 47.611 111.942 47.4848 111.982 47.4453C112.013 47.4477 112.061 47.4225 112.077 47.3933C112.1 47.4051 112.187 47.4138 112.219 47.3933C112.243 47.4564 112.266 47.5715 112.251 47.6567C112.33 47.6173 112.432 47.4966 112.432 47.4051C112.622 47.439 112.796 47.3365 112.749 47.1125C112.709 46.8893 112.725 46.786 112.836 46.7347C112.954 46.6827 113.461 46.7576 113.658 46.8775C113.864 46.9982 114.441 47.5076 114.71 47.577C115.762 47.7718 116.221 46.9982 115.627 46.9232Z" stroke="#231F20" stroke-width="0.0442086"/>
<path d="M115.707 50.3076C115.431 50.485 114.909 50.806 114.632 51.0071C114.323 51.2271 113.96 51.4117 113.082 51.0465C112.924 50.9779 112.734 50.9227 112.536 50.9385C112.338 50.9543 112.109 50.8904 112.014 50.8005C111.777 50.5702 111.793 50.765 111.461 50.6924C111.128 50.6191 111.002 50.3636 111.033 50.2311C111.002 50.1806 110.978 50.0323 111.002 49.974C111.018 50.037 111.097 50.1325 111.16 50.1601C111.231 50.1356 111.358 50.1553 111.413 50.1829C111.263 49.9116 111.358 49.7831 111.468 49.6829C111.437 49.5804 111.508 49.4124 111.579 49.3367C111.54 49.4179 111.595 49.5946 111.603 49.6569C111.666 49.6498 111.745 49.7287 111.761 49.7973C111.777 49.7681 111.816 49.7673 111.84 49.7665C111.84 49.6348 111.967 49.5118 112.054 49.4866C111.99 49.5796 112.062 49.7271 112.054 49.7847C112.196 49.7989 112.33 49.9282 112.37 50.0189C112.299 49.8541 112.433 49.7421 112.496 49.7066C112.528 49.66 112.56 49.4526 112.512 49.3683C112.67 49.3588 112.765 49.6435 112.773 49.7697C113.018 49.7815 113.042 50.0615 112.979 50.2634C113.066 50.3533 113.177 50.3967 113.343 50.5308C113.509 50.6648 113.865 50.5773 114.157 50.4905C114.418 50.4148 114.885 50.0268 115.201 49.7452C115.786 49.2058 116.261 49.7476 115.707 50.3076Z" fill="#FAE235"/>
<path d="M115.707 50.3076C115.431 50.485 114.909 50.806 114.632 51.0071C114.323 51.2271 113.96 51.4117 113.082 51.0465C112.924 50.9779 112.734 50.9227 112.536 50.9385C112.338 50.9543 112.109 50.8904 112.014 50.8005C111.777 50.5702 111.793 50.765 111.461 50.6924C111.128 50.6191 111.002 50.3636 111.033 50.2311C111.002 50.1806 110.978 50.0323 111.002 49.974C111.018 50.037 111.097 50.1325 111.16 50.1601C111.231 50.1356 111.358 50.1553 111.413 50.1829C111.263 49.9116 111.358 49.7831 111.468 49.6829C111.437 49.5804 111.508 49.4124 111.579 49.3367C111.54 49.4179 111.595 49.5946 111.603 49.6569C111.666 49.6498 111.745 49.7287 111.761 49.7973C111.777 49.7681 111.816 49.7673 111.84 49.7665C111.84 49.6348 111.967 49.5118 112.054 49.4866C111.99 49.5796 112.062 49.7271 112.054 49.7847C112.196 49.7989 112.33 49.9282 112.37 50.0189C112.299 49.8541 112.433 49.7421 112.496 49.7066C112.528 49.66 112.56 49.4526 112.512 49.3683C112.67 49.3588 112.765 49.6435 112.773 49.7697C113.018 49.7815 113.042 50.0615 112.979 50.2634C113.066 50.3533 113.177 50.3967 113.343 50.5308C113.509 50.6648 113.865 50.5773 114.157 50.4905C114.418 50.4148 114.885 50.0268 115.201 49.7452C115.786 49.2058 116.261 49.7476 115.707 50.3076Z" stroke="#231F20" stroke-width="0.0442086"/>
<path d="M123.291 50.8215C123.26 50.8815 123.244 50.9477 123.244 51.0092C122.983 51.1118 122.967 51.2498 122.967 51.4501C123.054 51.3302 123.236 51.2096 123.394 51.2096C123.56 51.4154 123.813 51.4698 124.066 51.1977C124.153 51.1063 124.304 50.9509 124.604 51.055C125.086 51.2206 126.257 51.1291 127.19 50.3042C126.486 49.7766 126.818 49.2608 127.174 49.1346C127.483 49.0265 127.807 48.9224 127.894 48.67C128.092 48.8286 128.25 49.0541 128.25 49.4327C128.432 49.2268 128.558 48.9745 128.542 48.7797C128.922 49.3751 129.468 49.1346 129.626 49.3294C129.65 49.2497 129.626 49.0778 129.602 48.9863C130.519 49.5936 131.397 48.9027 131.848 49.1464C132.093 49.2836 132.291 49.4327 132.433 49.6851C132.568 49.9374 132.671 50.1433 132.473 50.3728C132.228 50.6678 131.959 50.3681 131.856 50.6362C131.761 50.3499 131.382 50.3042 131.271 50.5905C131.073 50.2348 130.788 50.3152 130.646 50.499C130.535 50.648 130.496 50.9801 130.741 51.0944C130.559 51.2782 130.622 51.5416 130.86 51.6567C130.836 51.5187 130.844 51.2553 131.002 51.1749C131.041 51.2324 131.113 51.2727 131.192 51.2671C131.128 51.4793 131.231 51.7198 131.492 51.846C131.469 51.697 131.461 51.3925 131.563 51.2845C131.595 51.3413 131.793 51.3925 131.864 51.3302C131.801 51.5534 132.054 51.8113 132.267 51.8516C132.172 51.7656 132.141 51.4217 132.196 51.2608C132.386 51.3697 132.497 51.3239 132.584 50.9801C132.678 50.5526 133.485 50.5794 133.501 50.0061C133.509 49.7079 133.106 49.8341 132.813 48.6645C132.631 47.9689 131.888 48.2292 131.018 48.424C129.349 48.7962 129.317 47.4957 128.685 47.3009C129.855 47.5643 130.314 46.4759 130.583 46.0288C130.844 45.5816 131.571 45.9136 131.635 46.3269C131.983 45.7417 131.255 45.1691 130.67 45.513C130.796 45.375 130.686 45.1573 130.488 45.0658C130.29 44.9743 130.314 44.7558 130.433 44.5271C130.1 44.5957 129.911 44.8363 130.1 45.2953C128.353 43.6446 125.411 46.487 123.014 45.4554C122.904 43.9191 119.986 46.3955 120.262 44.6991C119.645 45.203 120.27 45.6849 120.658 45.845C120.152 46.2236 120.452 46.6818 120.911 46.8537C120.674 46.4412 120.855 45.8931 121.456 46.0059C122.556 46.2117 122.951 46.2922 122.935 45.8679C125.687 46.5556 128.313 44.3899 129.618 45.4097C130.583 46.166 129.499 47.1747 128.376 47.0146C125.846 45.2724 123.473 48.5959 119.614 47.9082C118.515 47.6101 116.648 49.4445 118.372 50.2009C120.531 51.141 125.063 47.1061 126.186 47.7481C126.478 47.9121 126.605 48.0848 126.636 48.2489C126.407 48.6614 125.695 48.23 125.514 48.7907C125.466 48.9287 125.26 49.1582 125.118 49.1921C125.324 49.2379 125.593 49.1921 125.767 49.0549C125.498 49.4903 125.616 49.9603 126.075 50.2695C125.466 50.6252 124.802 50.6591 124.485 50.2348C124.177 49.8113 123.742 49.8396 123.6 50.0005C123.497 50.0179 123.323 50.0344 123.268 50.1031C123.339 50.1094 123.457 50.1433 123.521 50.178C123.315 50.1725 123.141 50.2639 123.117 50.3957C122.967 50.4469 122.833 50.5731 122.801 50.734C122.864 50.6764 123.03 50.5794 123.141 50.5731C123.173 50.6654 123.22 50.7695 123.291 50.8215Z" fill="#FAE235"/>
<path d="M123.291 50.8215C123.26 50.8815 123.244 50.9477 123.244 51.0092C122.983 51.1118 122.967 51.2498 122.967 51.4501C123.054 51.3302 123.236 51.2096 123.394 51.2096C123.56 51.4154 123.813 51.4698 124.066 51.1977C124.153 51.1063 124.304 50.9509 124.604 51.055C125.086 51.2206 126.257 51.1291 127.19 50.3042C126.486 49.7766 126.818 49.2608 127.174 49.1346C127.483 49.0265 127.807 48.9224 127.894 48.67C128.092 48.8286 128.25 49.0541 128.25 49.4327C128.432 49.2268 128.558 48.9745 128.542 48.7797C128.922 49.3751 129.468 49.1346 129.626 49.3294C129.65 49.2497 129.626 49.0778 129.602 48.9863C130.519 49.5936 131.397 48.9027 131.848 49.1464C132.093 49.2836 132.291 49.4327 132.433 49.6851C132.568 49.9374 132.671 50.1433 132.473 50.3728C132.228 50.6678 131.959 50.3681 131.856 50.6362C131.761 50.3499 131.382 50.3042 131.271 50.5905C131.073 50.2348 130.788 50.3152 130.646 50.499C130.535 50.648 130.496 50.9801 130.741 51.0944C130.559 51.2782 130.622 51.5416 130.86 51.6567C130.836 51.5187 130.844 51.2553 131.002 51.1749C131.041 51.2324 131.113 51.2727 131.192 51.2671C131.128 51.4793 131.231 51.7198 131.492 51.846C131.469 51.697 131.461 51.3925 131.563 51.2845C131.595 51.3413 131.793 51.3925 131.864 51.3302C131.801 51.5534 132.054 51.8113 132.267 51.8516C132.172 51.7656 132.141 51.4217 132.196 51.2608C132.386 51.3697 132.497 51.3239 132.584 50.9801C132.678 50.5526 133.485 50.5794 133.501 50.0061C133.509 49.7079 133.106 49.8341 132.813 48.6645C132.631 47.9689 131.888 48.2292 131.018 48.424C129.349 48.7962 129.317 47.4957 128.685 47.3009C129.855 47.5643 130.314 46.4759 130.583 46.0288C130.844 45.5816 131.571 45.9136 131.635 46.3269C131.983 45.7417 131.255 45.1691 130.67 45.513C130.796 45.375 130.686 45.1573 130.488 45.0658C130.29 44.9743 130.314 44.7558 130.433 44.5271C130.1 44.5957 129.911 44.8363 130.1 45.2953C128.353 43.6446 125.411 46.487 123.014 45.4554C122.904 43.9191 119.986 46.3955 120.262 44.6991C119.645 45.203 120.27 45.6849 120.658 45.845C120.152 46.2236 120.452 46.6818 120.911 46.8537C120.674 46.4412 120.855 45.8931 121.456 46.0059C122.556 46.2117 122.951 46.2922 122.935 45.8679C125.687 46.5556 128.313 44.3899 129.618 45.4097C130.583 46.166 129.499 47.1747 128.376 47.0146C125.846 45.2724 123.473 48.5959 119.614 47.9082C118.515 47.6101 116.648 49.4445 118.372 50.2009C120.531 51.141 125.063 47.1061 126.186 47.7481C126.478 47.9121 126.605 48.0848 126.636 48.2489C126.407 48.6614 125.695 48.23 125.514 48.7907C125.466 48.9287 125.26 49.1582 125.118 49.1921C125.324 49.2379 125.593 49.1921 125.767 49.0549C125.498 49.4903 125.616 49.9603 126.075 50.2695C125.466 50.6252 124.802 50.6591 124.485 50.2348C124.177 49.8113 123.742 49.8396 123.6 50.0005C123.497 50.0179 123.323 50.0344 123.268 50.1031C123.339 50.1094 123.457 50.1433 123.521 50.178C123.315 50.1725 123.141 50.2639 123.117 50.3957C122.967 50.4469 122.833 50.5731 122.801 50.734C122.864 50.6764 123.03 50.5794 123.141 50.5731C123.173 50.6654 123.22 50.7695 123.291 50.8215Z" stroke="#231F20" stroke-width="0.0442086"/>
<path d="M118.011 46.7065C118.248 47.3603 118.984 47.7152 119.814 47.6347C119.767 47.8761 119.411 48.0819 119.15 48.0937C119.87 48.197 119.79 48.8043 120.431 48.701C120.099 49.2515 119.442 49.2168 118.96 48.9991C119.276 49.1482 119.593 49.4692 119.885 49.9392C119.411 50.0425 118.628 50.0307 118.343 49.7097C118.375 49.9045 118.43 50.2484 118.414 50.5923C118.145 50.1679 117.276 49.9739 117.276 49.5149C117.204 49.813 116.825 50.1569 116.833 50.4779C116.58 50.1569 116.413 49.9739 116.453 49.5954C116.39 50.2941 115.536 50.3399 115.488 50.627C115.488 50.2484 115.488 49.847 115.559 49.6182C115.211 49.8241 114.816 50.0536 114.373 49.8241C114.927 49.6064 114.8 48.7925 115.354 48.5977C114.856 48.8619 114.413 48.7239 114.191 48.4833C114.444 48.4833 114.792 48.2767 114.919 48.1276C114.587 48.1742 114.136 48.0251 113.883 47.6805C114.27 47.727 114.816 47.4517 115.196 47.085C115.409 46.8902 117.71 45.9612 118.011 46.7065Z" fill="#FAE235"/>
<path d="M118.011 46.7065C118.248 47.3603 118.984 47.7152 119.814 47.6347C119.767 47.8761 119.411 48.0819 119.15 48.0937C119.87 48.197 119.79 48.8043 120.431 48.701C120.099 49.2515 119.442 49.2168 118.96 48.9991C119.276 49.1482 119.593 49.4692 119.885 49.9392C119.411 50.0425 118.628 50.0307 118.343 49.7097C118.375 49.9045 118.43 50.2484 118.414 50.5923C118.145 50.1679 117.276 49.9739 117.276 49.5149C117.204 49.813 116.825 50.1569 116.833 50.4779C116.58 50.1569 116.413 49.9739 116.453 49.5954C116.39 50.2941 115.536 50.3399 115.488 50.627C115.488 50.2484 115.488 49.847 115.559 49.6182C115.211 49.8241 114.816 50.0536 114.373 49.8241C114.927 49.6064 114.8 48.7925 115.354 48.5977C114.856 48.8619 114.413 48.7239 114.191 48.4833C114.444 48.4833 114.792 48.2767 114.919 48.1276C114.587 48.1742 114.136 48.0251 113.883 47.6805C114.27 47.727 114.816 47.4517 115.196 47.085C115.409 46.8902 117.71 45.9612 118.011 46.7065Z" stroke="#231F20" stroke-width="0.0442086"/>
<path d="M116.322 46.1787C116.053 46.1156 115.832 46.4422 115.579 46.2127C115.571 46.3672 115.658 46.5683 115.903 46.6251C115.563 46.6598 115.563 46.9122 115.025 46.8491C115.112 47.1354 115.333 47.3128 115.618 47.2214C115.349 47.342 115.152 47.7372 114.898 47.6859C115.001 47.8862 115.46 48.07 115.721 47.9604C115.539 48.2356 115.713 48.6717 115.492 48.7916C115.927 48.8492 116.314 48.5456 116.448 48.2585C116.448 48.6828 116.622 48.9872 117.081 49.1016C116.994 48.7743 117.231 48.488 117.223 48.2127C117.295 48.4596 117.69 48.4249 117.856 48.7056C117.927 48.4651 117.73 48.3563 117.856 47.8231C117.991 47.9895 118.212 48.0408 118.394 48.0014C118.149 47.7372 117.904 47.2332 117.943 46.7056C117.959 46.3964 117.121 46.1559 116.322 46.1787Z" fill="#FAE235"/>
<path d="M116.322 46.1787C116.053 46.1156 115.832 46.4422 115.579 46.2127C115.571 46.3672 115.658 46.5683 115.903 46.6251C115.563 46.6598 115.563 46.9122 115.025 46.8491C115.112 47.1354 115.333 47.3128 115.618 47.2214C115.349 47.342 115.152 47.7372 114.898 47.6859C115.001 47.8862 115.46 48.07 115.721 47.9604C115.539 48.2356 115.713 48.6717 115.492 48.7916C115.927 48.8492 116.314 48.5456 116.448 48.2585C116.448 48.6828 116.622 48.9872 117.081 49.1016C116.994 48.7743 117.231 48.488 117.223 48.2127C117.295 48.4596 117.69 48.4249 117.856 48.7056C117.927 48.4651 117.73 48.3563 117.856 47.8231C117.991 47.9895 118.212 48.0408 118.394 48.0014C118.149 47.7372 117.904 47.2332 117.943 46.7056C117.959 46.3964 117.121 46.1559 116.322 46.1787Z" stroke="#231F20" stroke-width="0.0442086"/>
<path d="M116.302 47.733C115.994 47.7133 115.899 47.4838 116.009 47.3158C116.12 47.1486 116.128 46.9672 116.104 46.7472C116.088 46.5271 116.136 46.2464 116.508 45.9388C116.326 45.7731 116.389 45.5941 116.515 45.4687C116.674 45.3189 116.863 45.4096 116.911 45.52C117.291 45.5366 117.757 45.8055 117.986 46.1714C118.113 46.1651 118.279 46.2897 118.216 46.4964C118.168 46.6691 118.034 46.8071 117.805 46.7235C117.702 47.1928 117.472 47.3671 117.275 47.4523C117.069 47.5374 116.911 47.625 116.808 47.7985C116.713 47.972 116.468 48.0012 116.302 47.733Z" fill="#FAE235"/>
<path d="M116.302 47.733C115.994 47.7133 115.899 47.4838 116.009 47.3158C116.12 47.1486 116.128 46.9672 116.104 46.7472C116.088 46.5271 116.136 46.2464 116.508 45.9388C116.326 45.7731 116.389 45.5941 116.515 45.4687C116.674 45.3189 116.863 45.4096 116.911 45.52C117.291 45.5366 117.757 45.8055 117.986 46.1714C118.113 46.1651 118.279 46.2897 118.216 46.4964C118.168 46.6691 118.034 46.8071 117.805 46.7235C117.702 47.1928 117.472 47.3671 117.275 47.4523C117.069 47.5374 116.911 47.625 116.808 47.7985C116.713 47.972 116.468 48.0012 116.302 47.733Z" stroke="#231F20" stroke-width="0.0442086"/>
<path d="M117.448 45.8486C117.63 45.9582 117.843 46.1625 117.938 46.2824C117.977 46.3407 117.993 46.336 118.049 46.2808C118.294 46.0363 118.61 45.8194 118.958 45.7185C119.14 45.6664 119.069 45.6018 119.014 45.5844C118.958 45.5678 118.847 45.5387 118.658 45.6302C118.697 45.4653 118.523 45.3888 118.428 45.4527C118.341 45.5119 118.365 45.6593 118.412 45.7027C118.207 45.7066 117.922 45.53 117.977 45.1743C118.049 45.3139 118.246 45.2713 118.27 45.1554C118.294 45.0292 118.207 44.9495 118.112 44.9598C118.223 44.9306 118.294 44.7587 118.159 44.6782C118.025 44.5986 117.906 44.7366 117.93 44.847C117.891 44.7587 117.78 44.7192 117.685 44.8013C117.59 44.877 117.645 45.067 117.796 45.0639C117.511 45.28 117.218 45.1081 117.131 44.9274C117.195 44.9527 117.329 44.9046 117.345 44.7981C117.353 44.6829 117.21 44.5694 117.076 44.6751C117.076 44.4684 116.997 44.3832 116.957 44.3407C116.918 44.2981 116.823 44.2673 116.862 44.4503C116.934 44.8044 116.886 45.1853 116.783 45.519C116.76 45.5939 116.76 45.6065 116.839 45.6183C116.981 45.6428 117.266 45.7398 117.448 45.8486Z" fill="#FAE235"/>
<path d="M117.448 45.8486C117.63 45.9582 117.843 46.1625 117.938 46.2824C117.977 46.3407 117.993 46.336 118.049 46.2808C118.294 46.0363 118.61 45.8194 118.958 45.7185C119.14 45.6664 119.069 45.6018 119.014 45.5844C118.958 45.5678 118.847 45.5387 118.658 45.6302C118.697 45.4653 118.523 45.3888 118.428 45.4527C118.341 45.5119 118.365 45.6593 118.412 45.7027C118.207 45.7066 117.922 45.53 117.977 45.1743C118.049 45.3139 118.246 45.2713 118.27 45.1554C118.294 45.0292 118.207 44.9495 118.112 44.9598C118.223 44.9306 118.294 44.7587 118.159 44.6782C118.025 44.5986 117.906 44.7366 117.93 44.847C117.891 44.7587 117.78 44.7192 117.685 44.8013C117.59 44.877 117.645 45.067 117.796 45.0639C117.511 45.28 117.218 45.1081 117.131 44.9274C117.195 44.9527 117.329 44.9046 117.345 44.7981C117.353 44.6829 117.21 44.5694 117.076 44.6751C117.076 44.4684 116.997 44.3832 116.957 44.3407C116.918 44.2981 116.823 44.2673 116.862 44.4503C116.934 44.8044 116.886 45.1853 116.783 45.519C116.76 45.5939 116.76 45.6065 116.839 45.6183C116.981 45.6428 117.266 45.7398 117.448 45.8486Z" stroke="#231F20" stroke-width="0.0442086"/>
<path d="M116.737 47.2475C116.713 47.1576 116.729 47.0282 116.824 46.8729C116.729 47.0322 116.626 47.1118 116.532 47.1237C116.342 47.3539 116.065 47.7081 116.247 47.8224C116.437 47.9368 116.619 47.5188 116.737 47.2475Z" fill="#FAE235"/>
<path d="M116.737 47.2475C116.713 47.1576 116.729 47.0282 116.824 46.8729C116.729 47.0322 116.626 47.1118 116.532 47.1237C116.342 47.3539 116.065 47.7081 116.247 47.8224C116.437 47.9368 116.619 47.5188 116.737 47.2475Z" stroke="#231F20" stroke-width="0.0442086"/>
<path d="M127.426 48.4029C127.584 48.4755 127.75 48.5567 127.892 48.6719" stroke="#231F20" stroke-width="0.0442086"/>
<path d="M123.914 50.6538C123.59 50.555 123.376 50.6688 123.289 50.8223" stroke="#231F20" stroke-width="0.0442086"/>
<path d="M126.636 48.2487C126.692 48.5224 126.494 48.7669 126.352 48.86C126.961 48.9625 127.601 48.6415 127.395 48.08" stroke="#231F20" stroke-width="0.0442086"/>
<path d="M123.52 50.1789C123.599 50.1845 123.725 50.2019 123.788 50.2422" stroke="#231F20" stroke-width="0.0442086"/>
<path d="M128.541 48.7812C128.541 48.6779 128.454 48.4942 128.359 48.4256" stroke="#231F20" stroke-width="0.0442086"/>
<path d="M129.6 48.9863C129.505 48.9286 129.426 48.8479 129.379 48.7902" stroke="#231F20" stroke-width="0.0442086"/>
<path d="M131.272 50.592C131.224 50.6835 131.216 50.8791 131.256 50.9414" stroke="#231F20" stroke-width="0.0442086"/>
<path d="M131.857 50.6374C131.825 50.7123 131.825 50.8788 131.888 50.9355" stroke="#231F20" stroke-width="0.0442086"/>
<path d="M112.076 47.3926C111.989 47.3587 111.91 47.0487 112.163 46.9683" stroke="#231F20" stroke-width="0.0442086"/>
<path d="M111.669 47.3359C111.582 47.1924 111.59 46.9053 111.748 46.8028" stroke="#231F20" stroke-width="0.0442086"/>
<path d="M111.763 49.7974C111.691 49.8447 111.612 50.0986 111.858 50.2422" stroke="#231F20" stroke-width="0.0442086"/>
<path d="M111.414 50.1812C111.446 50.254 111.549 50.3315 111.659 50.3789" stroke="#231F20" stroke-width="0.0442086"/>
<path d="M117.09 46.8238C117.034 46.9122 116.963 46.9413 116.829 46.8617C116.702 46.782 116.694 46.7047 116.742 46.6172" stroke="#231F20" stroke-width="0.0442086"/>
<path d="M116.688 46.0218C116.767 46.0985 117.004 46.0543 117.091 46.1855" stroke="#231F20" stroke-width="0.0442086"/>
<path d="M116.799 46.0654C116.767 46.1034 116.744 46.1643 116.767 46.2109" stroke="#231F20" stroke-width="0.0442086"/>
<path d="M117.013 46.1243C117.013 46.1995 116.973 46.2619 116.91 46.2754" stroke="#231F20" stroke-width="0.0442086"/>
<path d="M116.997 47.3886C116.736 47.3941 116.633 47.189 116.823 46.8712C116.633 47.189 116.404 47.193 116.285 46.9627" stroke="#231F20" stroke-width="0.0442086"/>
<path d="M117.645 46.5996C117.534 46.5641 117.471 46.3346 117.312 46.322" stroke="#231F20" stroke-width="0.0442086"/>
<path d="M117.548 46.5191C117.532 46.5697 117.493 46.618 117.438 46.6172" stroke="#231F20" stroke-width="0.0442086"/>
<path d="M117.407 46.3637C117.336 46.3977 117.305 46.4641 117.32 46.5234" stroke="#231F20" stroke-width="0.0442086"/>
<path d="M118.096 46.0957C117.962 45.9348 117.725 45.7424 117.566 45.6477C117.408 45.5515 117.131 45.4348 116.918 45.3906" stroke="#231F20" stroke-width="0.0442086"/>
<path d="M128.945 55.2639C129.261 57.0826 128.977 57.9872 128.637 58.697C128.787 58.6789 129.024 58.5543 129.111 58.4746C129.119 58.5992 129.159 58.7585 129.19 58.8477C129.277 58.7759 129.42 58.5637 129.459 58.4486C129.53 58.6079 129.72 58.7317 129.918 58.7759C129.53 58.0314 129.53 55.9382 129.586 55.2016C129.594 55.0691 128.89 54.9358 128.945 55.2639Z" fill="#B02A24"/>
<path d="M128.945 55.2639C129.261 57.0826 128.977 57.9872 128.637 58.697C128.787 58.6789 129.024 58.5543 129.111 58.4746C129.119 58.5992 129.159 58.7585 129.19 58.8477C129.277 58.7759 129.42 58.5637 129.459 58.4486C129.53 58.6079 129.72 58.7317 129.918 58.7759C129.53 58.0314 129.53 55.9382 129.586 55.2016C129.594 55.0691 128.89 54.9358 128.945 55.2639Z" stroke="#231F20" stroke-width="0.0442086"/>
<path d="M129.681 52.9402C129.816 52.8511 129.99 52.7896 130.124 52.7714C129.926 52.9576 129.76 53.3393 129.697 53.5522C130.179 52.9134 131.247 52.6744 131.397 52.3282C131.413 52.4213 131.382 52.5719 131.374 52.6208C131.548 52.4615 131.745 52.3321 131.967 52.3503C131.888 52.4386 131.785 52.5987 131.769 52.732C131.967 52.5766 132.331 52.426 132.726 52.4615C132.599 52.5585 132.449 52.7005 132.378 52.8337C132.592 52.7005 132.853 52.6563 133.193 52.7628C133.034 52.8069 132.892 52.8866 132.781 53.0285C132.995 53.0112 133.303 53.0822 133.517 53.4103C133.311 53.3748 132.963 53.3566 132.813 53.4016C133.027 53.5609 133.066 53.7557 133.098 53.9686C132.892 53.818 132.592 53.65 132.354 53.6145C132.465 53.7029 132.536 53.8984 132.544 54.0041C132.37 53.8093 131.943 53.579 131.611 53.5696C131.698 53.6232 131.856 53.7738 131.904 53.9245C131.556 53.7383 131.168 53.5877 130.891 53.6942C130.994 53.7384 131.16 53.8448 131.208 53.9332C131.097 53.9332 130.694 53.9687 130.567 54.0578C131.587 54.2881 132.694 54.8827 132.244 56.3015C132.196 56.0618 132.125 55.5744 131.99 55.3701C131.998 55.5476 131.959 55.9293 131.745 56.009C131.769 55.8228 131.737 55.4498 131.682 55.3528C131.635 55.4766 131.563 55.654 131.469 55.7337C131.453 55.5208 131.358 55.2108 131.136 55.0247C131.168 55.2108 131.16 55.5034 130.978 55.6012C130.978 55.4324 130.907 55.0949 130.741 55.0775C130.701 55.1753 130.662 55.326 130.551 55.3969C130.464 55.042 130.053 54.7408 129.665 54.8204C130.298 55.1485 131.049 55.8315 131.105 56.5232C131.16 57.2148 131.073 57.5342 130.844 57.7559C130.86 57.5879 130.828 57.3308 130.812 57.1707C130.749 57.2771 130.662 57.4901 130.464 57.5792C130.527 57.4364 130.614 57.1352 130.622 56.8607C130.535 57.0997 130.417 57.2685 130.243 57.3923C130.314 56.9759 130.377 56.6383 130.369 56.3907C130.274 56.5673 130.179 56.7093 130.013 56.8158C130.069 56.55 130.156 56.1951 130.053 55.9025C130.037 56.0358 129.982 56.2132 129.832 56.337C129.871 56.0799 129.816 55.7518 129.642 55.5744C129.602 55.6895 129.491 55.796 129.412 55.8488C129.46 55.6627 129.452 55.3883 129.381 55.255C129.381 55.3528 129.373 55.6272 129.246 55.7786C129.246 55.6367 129.183 55.3346 129.088 55.2195C129.104 55.7873 128.89 56.1422 128.906 56.3189C128.78 56.0358 128.732 55.8228 128.716 55.654C128.701 55.9735 128.59 56.4971 128.455 56.6825C128.384 56.4877 128.297 56.2306 128.274 55.9916C128.329 56.6383 128.052 57.1707 128.084 57.3481C127.973 57.2148 127.847 56.9672 127.815 56.7889C127.712 57.1265 127.617 57.4191 127.593 57.6052C127.514 57.4633 127.443 57.3394 127.419 57.2503C127.356 57.3749 127.23 57.5697 127.174 57.7559C126.992 56.4703 127.601 55.3528 128.772 54.8031C128.629 54.7053 128.274 54.7581 128.108 55.0334C128.092 54.9356 128.068 54.7407 128.068 54.6343C127.949 54.7936 127.752 55.0949 127.712 55.2282C127.688 55.0775 127.633 54.8827 127.649 54.7053C127.522 54.9001 127.34 55.2818 127.317 55.4411C127.261 55.2731 127.19 54.9979 127.198 54.8646C127.111 55.0065 127.016 55.3173 127.016 55.4853C126.882 55.3259 126.842 55.1485 126.826 55.0247C126.716 55.255 126.621 55.6099 126.605 55.8134C126.455 55.7069 126.391 55.3883 126.383 55.2376C126.178 55.4498 125.988 55.725 125.893 55.938C125.648 54.6698 126.905 53.6855 129.049 54.1729C128.527 54.031 127.997 53.5254 127.601 54.0136C127.586 53.9071 127.538 53.747 127.617 53.6145C127.412 53.7029 127.174 53.96 127.095 54.1201C127.048 53.9687 127.056 53.7202 127.127 53.5877C126.858 53.8007 126.589 54.0396 126.455 54.359C126.407 54.1816 126.407 53.9158 126.47 53.7652C126.304 53.8622 126.051 54.0846 125.98 54.2707C125.933 53.9955 126.02 53.65 126.146 53.4726C125.775 53.6232 125.419 54.0932 125.34 54.359C125.268 54.0396 125.411 53.4544 125.585 53.277C125.332 53.2864 125.126 53.3038 125.039 53.4103C125.158 53.0735 125.759 52.8164 125.972 52.8866C125.909 52.7809 125.774 52.5317 125.585 52.4788C125.774 52.4615 126.17 52.6208 126.344 52.8424C126.376 52.7099 126.352 52.4079 126.257 52.284C126.455 52.3456 126.755 52.5412 126.858 52.7186C126.882 52.6035 126.89 52.3905 126.85 52.284C127.071 52.426 127.269 52.6121 127.38 52.8511C127.356 52.7099 127.332 52.4875 127.277 52.3724C127.451 52.4788 127.625 52.6744 127.736 52.9134C127.736 52.7714 127.744 52.568 127.696 52.4347C127.918 52.6121 128.139 52.896 128.266 53.18C128.281 53.0554 128.281 52.7982 128.234 52.6831C128.455 52.8069 128.732 53.3835 128.906 53.7029C128.882 53.5436 128.788 53.2683 128.701 53.1437C128.78 53.1666 128.922 53.2107 128.962 53.2683C128.859 53.0199 128.732 52.7809 128.629 52.687C128.803 52.7446 128.985 52.874 129.041 52.9844C129.056 52.8117 129.08 52.5412 129.041 52.4213C129.167 52.5057 129.31 52.665 129.381 52.8511C129.42 52.6784 129.586 52.3905 129.729 52.3014C129.658 52.5632 129.657 52.7935 129.681 52.9402Z" fill="#2DA053"/>
<path d="M129.681 52.9402C129.816 52.8511 129.99 52.7896 130.124 52.7714C129.926 52.9576 129.76 53.3393 129.697 53.5522C130.179 52.9134 131.247 52.6744 131.397 52.3282C131.413 52.4213 131.382 52.5719 131.374 52.6208C131.548 52.4615 131.745 52.3321 131.967 52.3503C131.888 52.4386 131.785 52.5987 131.769 52.732C131.967 52.5766 132.331 52.426 132.726 52.4615C132.599 52.5585 132.449 52.7005 132.378 52.8337C132.592 52.7005 132.853 52.6563 133.193 52.7628C133.034 52.8069 132.892 52.8866 132.781 53.0285C132.995 53.0112 133.303 53.0822 133.517 53.4103C133.311 53.3748 132.963 53.3566 132.813 53.4016C133.027 53.5609 133.066 53.7557 133.098 53.9686C132.892 53.818 132.592 53.65 132.354 53.6145C132.465 53.7029 132.536 53.8984 132.544 54.0041C132.37 53.8093 131.943 53.579 131.611 53.5696C131.698 53.6232 131.856 53.7738 131.904 53.9245C131.556 53.7383 131.168 53.5877 130.891 53.6942C130.994 53.7384 131.16 53.8448 131.208 53.9332C131.097 53.9332 130.694 53.9687 130.567 54.0578C131.587 54.2881 132.694 54.8827 132.244 56.3015C132.196 56.0618 132.125 55.5744 131.99 55.3701C131.998 55.5476 131.959 55.9293 131.745 56.009C131.769 55.8228 131.737 55.4498 131.682 55.3528C131.635 55.4766 131.563 55.654 131.469 55.7337C131.453 55.5208 131.358 55.2108 131.136 55.0247C131.168 55.2108 131.16 55.5034 130.978 55.6012C130.978 55.4324 130.907 55.0949 130.741 55.0775C130.701 55.1753 130.662 55.326 130.551 55.3969C130.464 55.042 130.053 54.7408 129.665 54.8204C130.298 55.1485 131.049 55.8315 131.105 56.5232C131.16 57.2148 131.073 57.5342 130.844 57.7559C130.86 57.5879 130.828 57.3308 130.812 57.1707C130.749 57.2771 130.662 57.4901 130.464 57.5792C130.527 57.4364 130.614 57.1352 130.622 56.8607C130.535 57.0997 130.417 57.2685 130.243 57.3923C130.314 56.9759 130.377 56.6383 130.369 56.3907C130.274 56.5673 130.179 56.7093 130.013 56.8158C130.069 56.55 130.156 56.1951 130.053 55.9025C130.037 56.0358 129.982 56.2132 129.832 56.337C129.871 56.0799 129.816 55.7518 129.642 55.5744C129.602 55.6895 129.491 55.796 129.412 55.8488C129.46 55.6627 129.452 55.3883 129.381 55.255C129.381 55.3528 129.373 55.6272 129.246 55.7786C129.246 55.6367 129.183 55.3346 129.088 55.2195C129.104 55.7873 128.89 56.1422 128.906 56.3189C128.78 56.0358 128.732 55.8228 128.716 55.654C128.701 55.9735 128.59 56.4971 128.455 56.6825C128.384 56.4877 128.297 56.2306 128.274 55.9916C128.329 56.6383 128.052 57.1707 128.084 57.3481C127.973 57.2148 127.847 56.9672 127.815 56.7889C127.712 57.1265 127.617 57.4191 127.593 57.6052C127.514 57.4633 127.443 57.3394 127.419 57.2503C127.356 57.3749 127.23 57.5697 127.174 57.7559C126.992 56.4703 127.601 55.3528 128.772 54.8031C128.629 54.7053 128.274 54.7581 128.108 55.0334C128.092 54.9356 128.068 54.7407 128.068 54.6343C127.949 54.7936 127.752 55.0949 127.712 55.2282C127.688 55.0775 127.633 54.8827 127.649 54.7053C127.522 54.9001 127.34 55.2818 127.317 55.4411C127.261 55.2731 127.19 54.9979 127.198 54.8646C127.111 55.0065 127.016 55.3173 127.016 55.4853C126.882 55.3259 126.842 55.1485 126.826 55.0247C126.716 55.255 126.621 55.6099 126.605 55.8134C126.455 55.7069 126.391 55.3883 126.383 55.2376C126.178 55.4498 125.988 55.725 125.893 55.938C125.648 54.6698 126.905 53.6855 129.049 54.1729C128.527 54.031 127.997 53.5254 127.601 54.0136C127.586 53.9071 127.538 53.747 127.617 53.6145C127.412 53.7029 127.174 53.96 127.095 54.1201C127.048 53.9687 127.056 53.7202 127.127 53.5877C126.858 53.8007 126.589 54.0396 126.455 54.359C126.407 54.1816 126.407 53.9158 126.47 53.7652C126.304 53.8622 126.051 54.0846 125.98 54.2707C125.933 53.9955 126.02 53.65 126.146 53.4726C125.775 53.6232 125.419 54.0932 125.34 54.359C125.268 54.0396 125.411 53.4544 125.585 53.277C125.332 53.2864 125.126 53.3038 125.039 53.4103C125.158 53.0735 125.759 52.8164 125.972 52.8866C125.909 52.7809 125.774 52.5317 125.585 52.4788C125.774 52.4615 126.17 52.6208 126.344 52.8424C126.376 52.7099 126.352 52.4079 126.257 52.284C126.455 52.3456 126.755 52.5412 126.858 52.7186C126.882 52.6035 126.89 52.3905 126.85 52.284C127.071 52.426 127.269 52.6121 127.38 52.8511C127.356 52.7099 127.332 52.4875 127.277 52.3724C127.451 52.4788 127.625 52.6744 127.736 52.9134C127.736 52.7714 127.744 52.568 127.696 52.4347C127.918 52.6121 128.139 52.896 128.266 53.18C128.281 53.0554 128.281 52.7982 128.234 52.6831C128.455 52.8069 128.732 53.3835 128.906 53.7029C128.882 53.5436 128.788 53.2683 128.701 53.1437C128.78 53.1666 128.922 53.2107 128.962 53.2683C128.859 53.0199 128.732 52.7809 128.629 52.687C128.803 52.7446 128.985 52.874 129.041 52.9844C129.056 52.8117 129.08 52.5412 129.041 52.4213C129.167 52.5057 129.31 52.665 129.381 52.8511C129.42 52.6784 129.586 52.3905 129.729 52.3014C129.658 52.5632 129.657 52.7935 129.681 52.9402Z" stroke="#231F20" stroke-width="0.0442086"/>
<path d="M131.373 52.6217C131.333 52.6526 131.286 52.7111 131.246 52.7949" stroke="#231F20" stroke-width="0.0442086"/>
<path d="M130.568 54.0584C130.378 54.0141 129.975 54.0584 129.801 54.1738" stroke="#231F20" stroke-width="0.0442086"/>
<path d="M130.744 55.0781C130.752 55.0166 130.704 54.821 130.594 54.7587" stroke="#231F20" stroke-width="0.0442086"/>
<path d="M130.621 56.8613C130.669 56.7454 130.708 56.4883 130.7 56.3731" stroke="#231F20" stroke-width="0.0442086"/>
<path d="M130.812 57.1719C130.844 57.0741 130.86 56.8879 130.86 56.7901" stroke="#231F20" stroke-width="0.0442086"/>
<path d="M130.052 55.9023C130.028 55.8132 130.02 55.6981 129.973 55.6184" stroke="#231F20" stroke-width="0.0442086"/>
<path d="M130.367 56.3906C130.367 56.2218 130.375 56.0002 130.352 55.9024" stroke="#231F20" stroke-width="0.0442086"/>
<path d="M129.641 55.5742C129.672 55.5119 129.712 55.3699 129.712 55.2903" stroke="#231F20" stroke-width="0.0442086"/>
<path d="M127.813 56.7891C127.765 56.6652 127.797 56.364 127.844 56.2039" stroke="#231F20" stroke-width="0.0442086"/>
<path d="M127.418 57.252C127.473 57.1455 127.552 56.7559 127.544 56.5958" stroke="#231F20" stroke-width="0.0442086"/>
<path d="M126.824 55.0254C126.856 54.941 126.872 54.8298 126.99 54.6878" stroke="#231F20" stroke-width="0.0442086"/>
<path d="M126.384 55.2383C126.376 55.1578 126.415 54.9409 126.51 54.8518" stroke="#231F20" stroke-width="0.0442086"/>
<path d="M127.199 54.8652C127.199 54.7988 127.255 54.6786 127.342 54.6256" stroke="#231F20" stroke-width="0.0442086"/>
<path d="M127.648 54.7051C127.688 54.6475 127.767 54.5055 127.807 54.4614" stroke="#231F20" stroke-width="0.0442086"/>
<path d="M128.066 54.6348C128.106 54.577 128.161 54.4924 128.209 54.4434" stroke="#231F20" stroke-width="0.0442086"/>
<path d="M128.906 53.7039C128.922 53.8017 128.977 54.1826 129.167 54.2891" stroke="#231F20" stroke-width="0.0442086"/>
<path d="M126.406 53.1618C127.26 53.0467 128.455 53.4986 129 54.0664" stroke="#231F20" stroke-width="0.0442086"/>
<path d="M132.329 53.1897C131.278 52.9144 130.313 53.349 129.641 54.1211" stroke="#231F20" stroke-width="0.0442086"/>
<path d="M129.696 53.5534C129.641 53.704 129.625 53.8633 129.617 54.0234" stroke="#231F20" stroke-width="0.0442086"/>
<path d="M129.111 58.4746C129.103 58.4121 129.103 58.3101 129.111 58.235" stroke="#231F20" stroke-width="0.0442086"/>
<path d="M129.649 55.557C129.19 55.557 129.19 56.2227 129.649 56.2227C130.099 56.2227 130.099 55.557 129.649 55.557Z" fill="#B02A24"/>
<path d="M129.649 55.557C129.19 55.557 129.19 56.2227 129.649 56.2227C130.099 56.2227 130.099 55.557 129.649 55.557Z" stroke="#231F20" stroke-width="0.0442086"/>
<path d="M114.268 64.6521C114.197 64.6623 113.905 64.6734 113.81 64.6623C113.786 64.7854 113.659 65.0086 113.557 65.1158C113.485 64.8382 113.169 64.4439 112.995 64.3532C113.035 64.4975 112.987 64.8067 112.94 64.9187C112.774 64.3855 112.267 64.3374 112.244 64.1883C112.141 64.3697 112.094 64.5772 112.157 64.7215C111.92 64.4865 111.39 64.2948 111.152 64.38C111.247 64.8067 111.595 65.0835 111.848 65.2065C111.572 65.2168 111.334 65.3343 111.145 65.5204C111.453 65.6963 111.817 65.824 112.117 65.6963C111.983 65.8193 111.856 65.9841 111.809 66.1703C111.999 66.2397 112.465 66.2081 112.655 66.1064C112.592 66.1869 112.528 66.3304 112.513 66.4637C112.639 66.5015 112.908 66.4582 113.019 66.3998C112.797 66.7145 112.71 67.4069 112.805 67.668C113.13 67.4661 113.43 67.0875 113.557 66.8209C113.675 66.9755 113.865 67.1191 114.079 67.1403C113.857 66.7034 114.316 66.4313 114.118 66.0748C113.92 65.7176 113.738 65.5953 113.644 65.5315C113.778 65.3343 114.213 64.7798 114.268 64.6521Z" fill="#2DA053"/>
<path d="M114.268 64.6521C114.197 64.6623 113.905 64.6734 113.81 64.6623C113.786 64.7854 113.659 65.0086 113.557 65.1158C113.485 64.8382 113.169 64.4439 112.995 64.3532C113.035 64.4975 112.987 64.8067 112.94 64.9187C112.774 64.3855 112.267 64.3374 112.244 64.1883C112.141 64.3697 112.094 64.5772 112.157 64.7215C111.92 64.4865 111.39 64.2948 111.152 64.38C111.247 64.8067 111.595 65.0835 111.848 65.2065C111.572 65.2168 111.334 65.3343 111.145 65.5204C111.453 65.6963 111.817 65.824 112.117 65.6963C111.983 65.8193 111.856 65.9841 111.809 66.1703C111.999 66.2397 112.465 66.2081 112.655 66.1064C112.592 66.1869 112.528 66.3304 112.513 66.4637C112.639 66.5015 112.908 66.4582 113.019 66.3998C112.797 66.7145 112.71 67.4069 112.805 67.668C113.13 67.4661 113.43 67.0875 113.557 66.8209C113.675 66.9755 113.865 67.1191 114.079 67.1403C113.857 66.7034 114.316 66.4313 114.118 66.0748C113.92 65.7176 113.738 65.5953 113.644 65.5315C113.778 65.3343 114.213 64.7798 114.268 64.6521Z" stroke="#231F20" stroke-width="0.0445622"/>
<path d="M114.965 67.9009C114.759 67.8906 114.585 68.0484 114.585 68.2984C114.64 68.203 114.743 68.2345 114.822 68.2345C114.814 68.3252 114.83 68.4427 114.862 68.5334C114.909 68.4317 115.036 68.3465 115.139 68.2881C115.131 68.3631 115.194 68.5657 115.226 68.6296C115.273 68.4798 115.392 68.3725 115.495 68.3142C115.597 68.4049 115.708 68.4822 115.835 68.5326C115.669 68.6817 115.613 68.8583 115.621 68.9971C115.74 68.8055 115.827 68.9222 115.858 69.1249C116.048 68.8268 116.214 68.9222 116.214 69.1991C116.349 68.7732 116.649 68.8694 116.981 68.9971C117.313 69.1249 117.812 69.3489 118.025 70.0737C118.128 70.4104 118.31 70.3718 118.523 70.3292C118.579 70.3915 118.642 70.4183 118.705 70.3821C118.769 70.3426 118.8 70.3024 118.816 70.2598C118.895 70.3182 118.982 70.4136 119.148 70.2653C119.219 70.203 119.243 70.1407 119.219 70.0784C119.599 69.8063 119.393 69.7109 119.18 69.636C118.966 69.5618 118.776 69.4554 118.571 69.2527C117.922 68.602 117.922 67.6004 117.48 67.3023C117.733 67.1958 117.875 66.9766 117.764 66.9978C118.073 66.9419 118.152 66.7171 118.041 66.7265C118.002 66.7305 117.946 66.7068 117.891 66.6855C118.136 66.6721 118.262 66.5081 118.452 66.3322C118.595 66.2044 118.539 66.1816 118.452 66.1816C118.824 65.8835 119.18 65.4158 118.848 65.512C119.441 64.9576 119.14 64.9891 118.935 65.053C119.639 64.1365 119.291 64.1586 119.211 64.2541C118.864 64.7005 118.057 65.0017 117.432 65.064C117.551 64.952 117.638 64.8298 117.693 64.6807C117.788 64.4496 117.685 64.4922 117.614 64.5522C117.567 64.5853 117.511 64.6003 117.448 64.6129C117.582 64.5112 117.796 64.2864 117.812 64.105C117.835 63.9236 117.796 63.8597 117.685 63.9772C117.582 64.094 117.266 64.2754 116.586 64.4883C115.898 64.702 116.001 65.2778 116.293 65.5222C116.57 65.7439 116.602 65.885 116.531 66.038C116.333 65.8235 115.953 65.8085 115.835 65.3732C115.74 65.0143 115.676 64.8187 115.384 64.7178C115.542 64.6697 115.661 64.4993 115.669 64.2651C115.526 64.3873 115.344 64.3873 114.925 64.2438C114.514 64.0995 114.174 64.3605 114.182 64.7123C113.921 64.84 113.77 65.0159 113.786 65.1437C113.897 65.1492 113.976 65.053 114.055 65.0751C114.142 65.0964 114.34 65.053 114.403 65.0964C114.886 65.4174 114.814 65.9489 114.704 66.5459C114.617 67.0523 114.727 67.5129 114.965 67.9009Z" fill="white"/>
<path d="M114.965 67.9009C114.759 67.8906 114.585 68.0484 114.585 68.2984C114.64 68.203 114.743 68.2345 114.822 68.2345C114.814 68.3252 114.83 68.4427 114.862 68.5334C114.909 68.4317 115.036 68.3465 115.139 68.2881C115.131 68.3631 115.194 68.5657 115.226 68.6296C115.273 68.4798 115.392 68.3725 115.495 68.3142C115.597 68.4049 115.708 68.4822 115.835 68.5326C115.669 68.6817 115.613 68.8583 115.621 68.9971C115.74 68.8055 115.827 68.9222 115.858 69.1249C116.048 68.8268 116.214 68.9222 116.214 69.1991C116.349 68.7732 116.649 68.8694 116.981 68.9971C117.313 69.1249 117.812 69.3489 118.025 70.0737C118.128 70.4104 118.31 70.3718 118.523 70.3292C118.579 70.3915 118.642 70.4183 118.705 70.3821C118.769 70.3426 118.8 70.3024 118.816 70.2598C118.895 70.3182 118.982 70.4136 119.148 70.2653C119.219 70.203 119.243 70.1407 119.219 70.0784C119.599 69.8063 119.393 69.7109 119.18 69.636C118.966 69.5618 118.776 69.4554 118.571 69.2527C117.922 68.602 117.922 67.6004 117.48 67.3023C117.733 67.1958 117.875 66.9766 117.764 66.9978C118.073 66.9419 118.152 66.7171 118.041 66.7265C118.002 66.7305 117.946 66.7068 117.891 66.6855C118.136 66.6721 118.262 66.5081 118.452 66.3322C118.595 66.2044 118.539 66.1816 118.452 66.1816C118.824 65.8835 119.18 65.4158 118.848 65.512C119.441 64.9576 119.14 64.9891 118.935 65.053C119.639 64.1365 119.291 64.1586 119.211 64.2541C118.864 64.7005 118.057 65.0017 117.432 65.064C117.551 64.952 117.638 64.8298 117.693 64.6807C117.788 64.4496 117.685 64.4922 117.614 64.5522C117.567 64.5853 117.511 64.6003 117.448 64.6129C117.582 64.5112 117.796 64.2864 117.812 64.105C117.835 63.9236 117.796 63.8597 117.685 63.9772C117.582 64.094 117.266 64.2754 116.586 64.4883C115.898 64.702 116.001 65.2778 116.293 65.5222C116.57 65.7439 116.602 65.885 116.531 66.038C116.333 65.8235 115.953 65.8085 115.835 65.3732C115.74 65.0143 115.676 64.8187 115.384 64.7178C115.542 64.6697 115.661 64.4993 115.669 64.2651C115.526 64.3873 115.344 64.3873 114.925 64.2438C114.514 64.0995 114.174 64.3605 114.182 64.7123C113.921 64.84 113.77 65.0159 113.786 65.1437C113.897 65.1492 113.976 65.053 114.055 65.0751C114.142 65.0964 114.34 65.053 114.403 65.0964C114.886 65.4174 114.814 65.9489 114.704 66.5459C114.617 67.0523 114.727 67.5129 114.965 67.9009Z" stroke="#231F20" stroke-width="0.0445622"/>
<path d="M114.584 64.5596C114.671 64.5161 114.735 64.6379 114.64 64.6822C114.545 64.7257 114.489 64.6039 114.584 64.5596Z" fill="#231F20"/>
<path d="M116.531 66.0372C116.563 66.064 116.587 66.0941 116.602 66.1289" stroke="#231F20" stroke-width="0.0445622"/>
<path d="M116.293 66.4277C116.657 66.1927 116.68 65.9695 116.673 65.7455C116.657 65.5216 116.712 65.0925 117.266 65.0744C117.321 65.072 117.376 65.0689 117.432 65.0633" stroke="#231F20" stroke-width="0.0445622"/>
<path d="M117.141 64.7422C117.204 64.6441 117.338 64.633 117.449 64.6101" stroke="#231F20" stroke-width="0.0445622"/>
<path d="M117.969 66.2559C118.072 66.2559 118.246 66.191 118.356 66.1831C118.388 66.1815 118.419 66.1792 118.451 66.1792" stroke="#231F20" stroke-width="0.0445622"/>
<path d="M117.762 66.6551C117.801 66.6504 117.849 66.6662 117.888 66.6836" stroke="#231F20" stroke-width="0.0445622"/>
<path d="M117.66 67.0078C117.692 67.0062 117.731 67.0023 117.763 66.9967" stroke="#231F20" stroke-width="0.0445622"/>
<path d="M118.75 69.6874C118.995 69.8341 119.185 69.9571 119.217 70.0762" stroke="#231F20" stroke-width="0.0445622"/>
<path d="M118.391 69.7109C118.636 69.9624 118.849 70.1241 118.818 70.2598" stroke="#231F20" stroke-width="0.0445622"/>
<path d="M118.207 69.8376C118.31 70.0071 118.413 70.2201 118.523 70.3281" stroke="#231F20" stroke-width="0.0445622"/>
<path d="M116.2 68.591C116.081 68.6068 115.955 68.5815 115.836 68.5317" stroke="#231F20" stroke-width="0.0445622"/>
<path d="M114.965 67.8999C115.012 67.9695 115.06 68.0367 115.107 68.1016" stroke="#231F20" stroke-width="0.0445622"/>
<path d="M115.493 68.3125C115.454 68.2769 115.422 68.2397 115.391 68.201" stroke="#231F20" stroke-width="0.0445622"/>
<path d="M116.727 66.5493C116.924 66.6723 117.162 66.5603 117.217 66.3151" stroke="#231F20" stroke-width="0.0445622"/>
<path d="M117.125 66.2715C117.536 66.4797 117.742 65.9678 117.465 65.7596" stroke="#231F20" stroke-width="0.0445622"/>
<path d="M117.367 65.8203C117.628 65.6657 117.683 65.3724 117.478 65.2548" stroke="#231F20" stroke-width="0.0445622"/>
<path d="M118.934 65.0527C118.815 65.0852 118.467 65.3042 118.285 65.1975" stroke="#231F20" stroke-width="0.0445622"/>
<path d="M118.848 65.5094C118.729 65.6159 118.555 65.7539 118.215 65.7539" stroke="#231F20" stroke-width="0.0445622"/>
<path d="M116.915 56.2346C116.702 56.6897 116.109 57.8096 115.832 58.3033C115.729 58.4894 116.346 58.8593 116.48 58.5723C116.852 57.7654 117.287 56.7102 117.453 56.4413C117.619 56.1723 117.05 55.9554 116.915 56.2346Z" fill="#B02A24"/>
<path d="M116.915 56.2346C116.702 56.6897 116.109 57.8096 115.832 58.3033C115.729 58.4894 116.346 58.8593 116.48 58.5723C116.852 57.7654 117.287 56.7102 117.453 56.4413C117.619 56.1723 117.05 55.9554 116.915 56.2346Z" stroke="#231F20" stroke-width="0.0445622"/>
<path d="M112.845 55.5266C113.043 56.1457 113.375 57.1797 113.644 58.2192C113.731 58.5544 114.419 58.3517 114.3 57.9203C114.079 57.0598 113.636 55.7782 113.446 55.2253C113.367 55.0148 112.734 55.1899 112.845 55.5266Z" fill="#B02A24"/>
<path d="M112.845 55.5266C113.043 56.1457 113.375 57.1797 113.644 58.2192C113.731 58.5544 114.419 58.3517 114.3 57.9203C114.079 57.0598 113.636 55.7782 113.446 55.2253C113.367 55.0148 112.734 55.1899 112.845 55.5266Z" stroke="#231F20" stroke-width="0.0445622"/>
<path d="M114.844 55.2124C114.86 55.7763 114.821 57.2069 114.797 57.8442C114.789 58.0839 115.501 58.151 115.493 57.7945C115.469 56.7921 115.39 55.5073 115.422 55.1524C115.445 54.7975 114.836 54.8622 114.844 55.2124Z" fill="#B02A24"/>
<path d="M114.844 55.2124C114.86 55.7763 114.821 57.2069 114.797 57.8442C114.789 58.0839 115.501 58.151 115.493 57.7945C115.469 56.7921 115.39 55.5073 115.422 55.1524C115.445 54.7975 114.836 54.8622 114.844 55.2124Z" stroke="#231F20" stroke-width="0.0445622"/>
<path d="M113.484 55.3556C113.428 54.7862 113.84 53.8137 114.156 53.6276C114.464 53.4415 115.05 53.0069 115.318 52.6347C115.065 52.7593 114.172 53.0282 113.99 53.0897C113.072 53.3942 113.072 54.2696 113.057 55.0969C113.072 54.559 112.993 54.0417 112.432 53.3792C111.87 52.7175 111.459 53.193 111.253 53.6899C111.04 54.186 111.254 54.3934 111.475 54.7452C111.625 54.2696 111.689 53.8965 111.973 53.9383C112.266 53.9794 112.685 54.6 112.764 55.4068C112.471 55.0141 111.91 54.6205 111.372 55.1797C110.834 55.7381 111.167 55.966 111.459 56.5039C111.538 55.9242 111.546 55.7878 111.768 55.6348C112.1 55.4069 112.637 55.593 112.906 55.9865C113.183 56.3793 113.468 55.9242 113.484 55.3556Z" fill="#2DA053"/>
<path d="M113.484 55.3556C113.428 54.7862 113.84 53.8137 114.156 53.6276C114.464 53.4415 115.05 53.0069 115.318 52.6347C115.065 52.7593 114.172 53.0282 113.99 53.0897C113.072 53.3942 113.072 54.2696 113.057 55.0969C113.072 54.559 112.993 54.0417 112.432 53.3792C111.87 52.7175 111.459 53.193 111.253 53.6899C111.04 54.186 111.254 54.3934 111.475 54.7452C111.625 54.2696 111.689 53.8965 111.973 53.9383C112.266 53.9794 112.685 54.6 112.764 55.4068C112.471 55.0141 111.91 54.6205 111.372 55.1797C110.834 55.7381 111.167 55.966 111.459 56.5039C111.538 55.9242 111.546 55.7878 111.768 55.6348C112.1 55.4069 112.637 55.593 112.906 55.9865C113.183 56.3793 113.468 55.9242 113.484 55.3556Z" stroke="#231F20" stroke-width="0.0445622"/>
<path d="M113.619 56.1928C112.662 55.386 111.768 55.9657 111.586 56.7307C111.396 57.4965 111.705 57.8893 111.958 58.1582C112.061 56.9586 112.67 55.942 113.2 56.3379C113.453 56.5241 113.801 56.5241 113.619 56.1928Z" fill="#2DA053"/>
<path d="M113.619 56.1928C112.662 55.386 111.768 55.9657 111.586 56.7307C111.396 57.4965 111.705 57.8893 111.958 58.1582C112.061 56.9586 112.67 55.942 113.2 56.3379C113.453 56.5241 113.801 56.5241 113.619 56.1928Z" stroke="#231F20" stroke-width="0.0445622"/>
<path d="M115.337 55.8203C115.59 55.4268 115.993 55.0537 116.025 55.5514C116.064 56.2549 116.499 56.2344 116.752 56.2131C116.38 55.986 116.562 55.758 116.562 55.1997C116.562 54.6649 116.507 53.8266 115.424 54.9362C116.048 53.627 116.127 53.4717 116.981 53.1049C117.828 52.7374 118.097 52.4062 117.037 52.7374C115.985 53.0687 115.36 53.2966 115.273 54.3928C115.337 53.7517 115.479 53.4898 115.107 53.1925C114.427 52.6341 114.285 52.5513 113.035 52.7169C113.407 52.8825 113.779 53.2217 114.3 53.4409C114.696 53.6065 114.925 53.6065 114.941 54.8274C114.822 54.3928 114.506 53.855 114.055 54.62C113.462 55.6176 113.889 55.6547 114.221 56.7305C114.427 56.5238 114.451 55.9032 114.364 55.5514C114.285 55.1997 114.324 55.1996 114.467 54.9512C114.617 54.7028 114.72 54.7146 114.846 55.2115C114.973 55.7083 115.131 56.027 115.337 55.8203Z" fill="#2DA053"/>
<path d="M115.337 55.8203C115.59 55.4268 115.993 55.0537 116.025 55.5514C116.064 56.2549 116.499 56.2344 116.752 56.2131C116.38 55.986 116.562 55.758 116.562 55.1997C116.562 54.6649 116.507 53.8266 115.424 54.9362C116.048 53.627 116.127 53.4717 116.981 53.1049C117.828 52.7374 118.097 52.4062 117.037 52.7374C115.985 53.0687 115.36 53.2966 115.273 54.3928C115.337 53.7517 115.479 53.4898 115.107 53.1925C114.427 52.6341 114.285 52.5513 113.035 52.7169C113.407 52.8825 113.779 53.2217 114.3 53.4409C114.696 53.6065 114.925 53.6065 114.941 54.8274C114.822 54.3928 114.506 53.855 114.055 54.62C113.462 55.6176 113.889 55.6547 114.221 56.7305C114.427 56.5238 114.451 55.9032 114.364 55.5514C114.285 55.1997 114.324 55.1996 114.467 54.9512C114.617 54.7028 114.72 54.7146 114.846 55.2115C114.973 55.7083 115.131 56.027 115.337 55.8203Z" stroke="#231F20" stroke-width="0.0445622"/>
<path d="M117.748 54.1027C117.827 53.5443 117.455 53.1721 117.147 53.1303C116.831 53.0893 116.23 52.986 115.984 52.6965C115.984 53.2967 116.396 53.7313 116.791 53.8551C117.186 53.9789 117.226 54.3078 117.226 54.6201C117.226 56.5034 117.685 57.2274 117.748 54.1027Z" fill="#2DA053"/>
<path d="M117.748 54.1027C117.827 53.5443 117.455 53.1721 117.147 53.1303C116.831 53.0893 116.23 52.986 115.984 52.6965C115.984 53.2967 116.396 53.7313 116.791 53.8551C117.186 53.9789 117.226 54.3078 117.226 54.6201C117.226 56.5034 117.685 57.2274 117.748 54.1027Z" stroke="#231F20" stroke-width="0.0445622"/>
<path d="M116.872 56.358C116.959 55.0756 116.65 54.5377 117.662 53.9375C118.683 53.3373 119.181 53.2545 119.244 54.682C118.928 54.5992 118.635 54.3721 118.517 54.2065C118.224 54.4959 117.828 54.8477 117.52 55.1789C117.417 55.8824 117.37 56.2342 117.314 56.5236C117.251 56.813 116.856 56.7925 116.872 56.358Z" fill="#2DA053"/>
<path d="M116.872 56.358C116.959 55.0756 116.65 54.5377 117.662 53.9375C118.683 53.3373 119.181 53.2545 119.244 54.682C118.928 54.5992 118.635 54.3721 118.517 54.2065C118.224 54.4959 117.828 54.8477 117.52 55.1789C117.417 55.8824 117.37 56.2342 117.314 56.5236C117.251 56.813 116.856 56.7925 116.872 56.358Z" stroke="#231F20" stroke-width="0.0445622"/>
<path d="M117.122 56.4412C117.517 55.6959 117.557 55.427 117.928 55.1375C118.3 54.8481 118.909 54.5996 119.154 56.4207C118.862 56.1928 118.514 55.8615 118.347 55.7377C118.181 55.6139 118.094 55.7795 117.865 56.069C117.644 56.3584 116.932 56.8963 117.122 56.4412Z" fill="#2DA053"/>
<path d="M117.122 56.4412C117.517 55.6959 117.557 55.427 117.928 55.1375C118.3 54.8481 118.909 54.5996 119.154 56.4207C118.862 56.1928 118.514 55.8615 118.347 55.7377C118.181 55.6139 118.094 55.7795 117.865 56.069C117.644 56.3584 116.932 56.8963 117.122 56.4412Z" stroke="#231F20" stroke-width="0.0445622"/>
<path d="M116.855 56.4614C117.314 55.6751 117.836 55.8983 118.184 56.2752C118.658 56.7926 117.994 57.4543 118.097 57.9512C117.646 57.9307 117.749 57.3715 117.788 57.0821C117.828 56.7926 117.567 56.3344 117.25 56.8131C117.203 56.8754 116.752 56.586 116.855 56.4614Z" fill="#2DA053"/>
<path d="M116.855 56.4614C117.314 55.6751 117.836 55.8983 118.184 56.2752C118.658 56.7926 117.994 57.4543 118.097 57.9512C117.646 57.9307 117.749 57.3715 117.788 57.0821C117.828 56.7926 117.567 56.3344 117.25 56.8131C117.203 56.8754 116.752 56.586 116.855 56.4614Z" stroke="#231F20" stroke-width="0.0445622"/>
<path d="M36.75 14.1836H51.4991L36.75 5.01528V-0.247543H45.1883L65.8212 12.4927V-0.247543H77.4386V12.4927L98.0717 -0.247543H106.581V5.01528L91.7607 14.1836H106.581V28.6258H91.7607L106.581 37.7934V43.0586H98.0717L77.4386 30.3168V43.0586H65.8212V30.3168L45.1883 43.0586H36.75V37.7934L51.4991 28.6258H36.75V14.1836Z" fill="white"/>
<path d="M101.091 -0.247283L77.7852 14.1934H83.3606L106.58 -0.247283H101.091Z" fill="#E01D25"/>
<path d="M106.579 43.0586L83.3359 28.6251H88.943L106.579 39.6176V43.0586Z" fill="#E01D25"/>
<path d="M60.056 28.6251L36.75 43.0586H42.3254L65.6393 28.6251H60.056Z" fill="#E01D25"/>
<path d="M36.75 17.1798H68.2966V-0.247543H75.1215V17.1798H106.581V25.6368H75.1215V43.0586H68.2966V25.6368H36.75V17.1798Z" fill="#E01D25"/>
</g>
<path d="M76.6094 93.5938C84.8247 98.626 95.3524 98.4532 105.848 93.8574C116.337 89.2643 126.668 80.2928 134.285 67.9922C141.903 55.6913 145.309 42.4818 144.713 31.1045C144.117 19.7221 139.536 10.3 131.318 5.26855C122.799 0.0508545 112.403 0.0265778 102.08 4.53906C91.7472 9.05608 81.5532 18.1033 73.6494 30.8691V30.8701C66.032 43.1709 62.6248 56.3797 63.2188 67.7568C63.8131 79.1392 68.3913 88.5612 76.6084 93.5928L76.6094 93.5938Z" stroke="#959595" stroke-width="2.5" stroke-miterlimit="10"/>
<rect x="47.6211" y="28.5723" width="28.5714" height="41.2698" fill="white"/>
<mask id="mask1_8197_124729" style="mask-type:luminance" maskUnits="userSpaceOnUse" x="6" y="0" width="85" height="99">
<path d="M17.0297 30.0201C1.56088 55.0692 3.07142 84.004 20.3987 94.6479C37.7339 105.293 64.3219 93.6148 79.7907 68.5657C95.2595 43.5167 93.749 14.5811 76.4138 3.93714C59.0865 -6.70679 32.4985 4.9711 17.0297 30.0201Z" fill="white"/>
</mask>
<g mask="url(#mask1_8197_124729)">
<path d="M121.269 98.9199V-0.247017H-18.8047V98.9199H121.269Z" fill="#28357B"/>
<path d="M-18.8047 14.1837H-4.05555L-18.8047 5.01536V-0.247414H-10.3664L10.2586 12.4928V-0.247414H21.8761V12.4928L42.509 -0.247414H51.0185V5.01536L36.1981 14.1837H51.0185V28.6259H36.1981L51.0185 37.7942V43.0586H42.509L21.8761 30.3176V43.0586H10.2586V30.3176L-10.3664 43.0586H-18.8047V37.7942L-4.05555 28.6259H-18.8047V14.1837Z" fill="white"/>
<path d="M45.5287 -0.24607L22.2227 14.1953H27.806L51.0171 -0.24607H45.5287Z" fill="#E01D25"/>
<path d="M51.0162 43.0586L27.7734 28.6259H33.3805L51.0162 39.6184V43.0586Z" fill="#E01D25"/>
<path d="M4.49339 28.6259L-18.8047 43.0586H-13.2293L10.0768 28.6259H4.49339Z" fill="#E01D25"/>
<path d="M-18.8047 17.1799H12.7339V-0.247414H19.5668V17.1799H51.0185V25.6368H19.5668V43.0586H12.7339V25.6368H-18.8047V17.1799Z" fill="#E01D25"/>
<path fill-rule="evenodd" clip-rule="evenodd" d="M17.9742 55.5841L20.1015 62.1797L26.5943 59.7262L22.7509 65.4961L28.7296 69.0317L21.8018 69.6319L22.7587 76.4941L17.9742 71.4727L13.1896 76.4941L14.1386 69.6319L7.21875 69.0317L13.1896 65.4961L9.34614 59.7262L15.8468 62.1797L17.9742 55.5841Z" fill="white"/>
<path fill-rule="evenodd" clip-rule="evenodd" d="M87.1263 66.6934L88.1703 69.9246L91.3494 68.7227L89.4672 71.5493L92.3933 73.2812L89.0006 73.5754L89.4672 76.9375L87.1263 74.4776L84.7855 76.9375L85.252 73.5754L81.8594 73.2812L84.7855 71.5493L82.9032 68.7227L86.0824 69.9246L87.1263 66.6934Z" fill="white"/>
<path fill-rule="evenodd" clip-rule="evenodd" d="M68.2123 35.1809L69.2562 38.4121L72.4433 37.2101L70.5532 40.0375L73.4872 41.7695L70.0944 42.0636L70.5611 45.4258L68.2123 42.9651L65.8714 45.4258L66.338 42.0636L62.9453 41.7695L65.8714 40.0375L63.9892 37.2101L67.1763 38.4121L68.2123 35.1809Z" fill="white"/>
<path fill-rule="evenodd" clip-rule="evenodd" d="M87.6107 14.9435L88.6546 18.1746L91.8417 16.9719L89.9595 19.7993L92.8856 21.5312L89.493 21.8254L89.9595 25.1875L87.6107 22.7269L85.2699 25.1875L85.7365 21.8254L82.3438 21.5312L85.2699 19.7993L83.3877 16.9719L86.5747 18.1746L87.6107 14.9435Z" fill="white"/>
</g>
<path d="M21.0547 93.5938C29.27 98.626 39.7978 98.4532 50.293 93.8574C60.782 89.2643 71.113 80.2928 78.7305 67.9922C86.3481 55.6913 89.7542 42.4818 89.1582 31.1045C88.5619 19.7221 83.9812 10.3 75.7637 5.26855C67.2439 0.0508545 56.8481 0.0265778 46.5254 4.53906C36.1925 9.05608 25.9985 18.1033 18.0947 30.8691V30.8701C10.4773 43.1709 7.07007 56.3797 7.66406 67.7568C8.25838 79.1392 12.8366 88.5612 21.0537 93.5928L21.0547 93.5938Z" stroke="#959595" stroke-width="2.5" stroke-miterlimit="10"/>
</svg>
