<svg width="593" height="607" viewBox="0 0 593 607" fill="none" xmlns="http://www.w3.org/2000/svg">
<path d="M353.746 521C367.19 525.578 380.057 530.605 394.128 530.853C400.127 530.959 407.543 530.267 414.001 530.15C409.984 535.297 405.967 534.725 402.546 534.727C363.6 535.347 324.65 535.922 285.701 535.998C263.14 536.042 240.575 535.31 218.018 534.623C206.673 534.278 195.339 533.332 184.011 532.465C182.025 532.313 178.5 531.5 178.501 530.5C178.443 529.794 178.557 528.706 178.5 528C180.5 526.714 181.919 526.247 183.929 526.158C214.802 524.791 245.674 523.329 276.559 522.44C301.285 521.728 326.027 521.765 350.762 521.45C351.584 521.44 352.63 521.487 353.746 521Z" fill="#1C1054"/>
<path d="M430.421 573.715C373.008 602.96 312.734 612.393 249.589 602.259C204.229 594.979 163.047 577.138 125.95 550.113C56.6645 499.638 15.3721 431.403 3.51963 347.038C-10.9909 243.752 19.3535 154.136 94.7853 81.465C142.083 35.8986 199.517 9.86675 264.778 2.19091C337.163 -6.32294 403.927 9.97469 464.073 51.1198C510.94 83.181 544.462 126.496 566.839 178.544C585.437 221.801 594.239 267.1 591.56 314.002C586.09 409.765 547.211 488.932 470.826 548.24C458.407 557.882 444.152 565.162 430.421 573.715ZM413.862 530.108C479.727 523.322 525.708 452.813 507.088 387.614C494.654 344.073 456.654 312.446 410.5 307.5C410.514 254.522 410.896 200.16 411.319 147.186C411.431 133.288 401.432 120.617 384.632 120.441C372.971 120.319 361.308 120.41 349.646 120.379C347.888 120.374 346.131 120.219 344.293 120.129C344.147 118.785 344.005 117.977 343.978 117.165C343.541 103.704 340.028 100.323 326.378 100.287C320.122 100.27 313.867 100.284 307.038 100.284C307.903 89.4495 306.026 80.0162 299.25 72.08C292.595 64.2854 284.335 59.3875 274.023 58.3894C265.04 57.5199 256.878 59.9991 249.458 64.9898C237.1 73.3025 233.15 85.7702 233.191 100.322C225.129 100.322 217.828 100.289 210.527 100.33C201.199 100.384 196.496 105.024 196.126 114.442C196.056 116.221 195.963 118 195.867 120.07C193.833 120.17 192.209 120.314 190.584 120.319C176.923 120.36 163.261 120.456 149.6 120.376C133.284 120.28 121.314 132.578 121.663 148.229C122.277 175.704 121.863 203.204 121.773 230.693C121.61 280.627 121.33 330.56 121.175 380.494C121.086 409.315 121.309 438.139 121.084 466.959C120.934 486.224 133.547 497.456 150.689 496.598C170.631 495.599 190.661 496.38 210.653 496.354C246.971 496.306 282.636 495.782 319.5 496C328.848 503.049 338 510.5 348.322 517.801C350.13 519.16 352.666 519.657 354 521.5C353.5 522.394 351.847 522.385 351.028 522.394C326.399 522.669 301.761 522.637 277.14 523.259C246.386 524.036 215.645 525.315 184.903 526.51C181.765 526.632 180.781 526.86 179.5 527.5C178.5 528 178.321 530.557 179 531C180.533 532 182.654 531.868 184.984 532.024C196.264 532.782 207.55 533.609 218.848 533.911C241.308 534.512 263.778 535.152 286.243 535.113C325.028 535.047 363.812 534.544 402.593 534.002C407.5 533.933 410.5 533 413.862 530.108ZM465.504 123.4C462.904 136.766 456.19 146.33 441.931 148.942C441.451 149.03 441.015 149.338 440.542 149.494C439.254 149.922 437.956 150.323 436.663 150.735C437.165 151.551 437.667 152.367 438.169 153.183C441.517 154.502 444.813 155.983 448.226 157.106C455.019 159.342 459.706 163.517 461.756 170.533C462.782 174.043 464.043 177.494 465.393 180.894C465.771 181.846 466.846 182.522 467.602 183.324C468.48 182.476 469.756 181.784 470.164 180.75C471.566 177.197 472.704 173.536 473.87 169.893C475.651 164.327 479.002 160.311 484.645 158.291C487.931 157.115 491.16 155.748 494.315 154.257C495.397 153.745 496.176 152.595 497.093 151.737C496.195 150.879 495.433 149.736 494.367 149.222C492.279 148.217 490.066 147.402 487.827 146.791C480.234 144.717 475.539 139.891 473.438 132.34C472.547 129.137 471.447 125.982 470.251 122.878C468.998 119.627 467.408 119.271 465.504 123.4Z" fill="#024BC5"/>
<path d="M319.878 496.31C310.426 486.099 303.388 474.643 297.006 461.936C276.861 461.444 257.41 461.33 237.975 460.802C239.552 459.671 241.107 458.345 242.675 458.331C258.926 458.178 275.179 458.226 291.432 458.244C295.289 458.248 298.602 457.67 300.135 453.292C300.522 452.184 302.535 451.645 304.001 451.102C307.079 457.394 309.957 463.428 312.897 469.799C328.622 496 350.993 512.49 381.073 518.896C391.654 519.49 402.125 521.319 412.152 519.934C462.616 512.964 497.812 474.793 500.891 424.369C502.582 396.695 494.403 372.159 475.902 350.885C467.842 341.819 458.991 334.233 448.01 328.816C444.505 327.127 441.227 325.712 437.753 324.135C437.389 323.953 437.22 323.934 436.863 323.695C436.118 323.351 435.563 323.228 434.708 322.878C428.386 321.208 422.362 319.766 415.986 318.154C405.073 317.896 394.512 317.806 384.026 317.384C385.04 313.915 385.98 310.779 386.92 307.642C394.627 307.474 402.334 307.306 410.514 307.08C457.266 311.063 494.653 344.073 507.088 387.614C525.708 452.812 479.727 523.322 413.001 530.209C406.164 530.423 400.185 530.707 394.211 530.615C380.2 530.398 367 526.5 354.068 521.447C352 520.5 349.678 519.199 348 518C337.5 511.5 328.5 504 319.878 496.31Z" fill="#F5F4F9"/>
<path d="M303.8 450.844C302.534 451.644 300.522 452.184 300.134 453.292C298.601 457.669 295.289 458.248 291.431 458.244C275.179 458.226 258.926 458.178 242.675 458.33C241.107 458.345 239.551 459.67 237.516 460.91C225.015 461.359 212.987 461.285 200.906 460.821C197.34 456.892 190.101 457.337 187.592 461.335C186.47 461.371 185.714 461.296 184.905 460.83C183.202 459.704 181.579 458.417 179.898 458.337C174.263 458.071 168.594 458.015 162.965 458.345C160.692 458.477 158.49 459.814 156.255 460.603C151.972 459.075 152.217 455.432 152.218 451.92C152.225 414.112 152.232 376.305 152.253 338.497C152.288 278.704 152.334 218.912 152.924 158.608C153.969 156.835 154.997 155.513 154.865 154.32C154.381 149.961 156.344 149.03 160.309 149.153C168.77 149.415 177.254 149.47 185.709 149.138C190.348 148.957 193.333 149.908 194.137 155.021C194.375 156.535 194.908 159.594 197.953 157.249C201.846 162.415 206.922 164.442 213.472 164.408C250.567 164.214 287.666 164.022 324.757 164.454C335.965 164.584 344.588 160.615 344.37 145.177C350.417 145.177 356.485 145.178 362.554 145.176C366.213 145.175 369.874 145.133 373.533 145.171C378.883 145.227 380.592 146.947 380.724 152.362C380.781 154.69 380.77 157.019 380.814 160.189C380.893 162.094 380.948 163.159 381.002 164.223C380.931 167.928 380.86 171.632 380.82 176.036C380.899 176.898 380.946 177.063 380.993 177.227C380.924 181.263 380.856 185.298 380.808 190.247C380.881 195.85 380.934 200.538 380.987 205.227C380.919 223.592 380.852 241.957 380.805 261.192C380.881 263.45 380.934 264.839 380.988 266.227C380.92 266.678 380.853 267.129 380.806 268.372C380.878 277.519 380.93 285.874 380.982 294.229C380.923 296.939 380.864 299.649 380.839 303.046C380.923 303.897 380.973 304.059 381.023 304.222C380.959 304.674 380.896 305.126 380.869 306.287C380.908 307.252 380.912 307.506 380.93 307.795C380.944 307.83 380.952 307.803 380.952 307.803C382.608 307.732 384.263 307.662 386.419 307.616C385.979 310.778 385.04 313.915 383.632 317.538C373.376 321.161 363.055 323.201 353.903 327.647C328.907 339.786 312.299 359.651 303.645 386.475C303.367 387.17 303.284 387.598 303.033 388.238C302.738 388.976 302.611 389.501 302.242 390.321C300.952 400.169 299.902 409.721 298.745 419.594C298.718 420.352 298.797 420.79 298.793 421.679C299.344 427.777 299.978 433.423 300.267 439.201C298.604 441.009 296.378 442.896 301.017 443.565C302.074 446.208 302.937 448.526 303.8 450.844ZM265.459 228.068C259.798 228.066 254.135 227.985 248.475 228.087C243.959 228.168 240.83 230.889 241.253 234.507C241.738 238.644 244.411 240.425 248.519 240.421C280.989 240.387 313.459 240.396 345.929 240.354C347.226 240.352 349.175 240.425 349.695 239.678C351.167 237.566 353.071 234.988 352.941 232.699C352.73 228.954 349.419 228.052 345.885 228.059C319.41 228.105 292.934 228.075 265.459 228.068ZM352.973 303.26C353.317 297.092 351.499 294.919 345.467 294.911C313.312 294.865 281.156 294.872 249 294.93C243.897 294.939 240.938 297.43 241.281 301.358C241.678 305.888 244.684 307.415 248.918 307.41C281.241 307.371 313.564 307.441 345.885 307.221C348.145 307.206 350.392 305.142 352.973 303.26ZM203.091 388.022C209.992 379.917 216.903 371.82 223.792 363.704C227.516 359.316 227.639 355.589 224.202 352.895C220.974 350.365 217.619 351.214 214.024 355.486C208.485 362.067 202.953 368.653 197.029 375.7C194.602 373.1 192.535 370.738 190.307 368.539C187.591 365.86 184.53 365.059 181.529 368.009C178.507 370.979 178.71 374.214 181.475 377.293C184.808 381.006 188.168 384.696 191.585 388.331C195.43 392.421 198.205 392.454 203.091 388.022ZM205.495 229.269C202.814 232.366 200.134 235.463 197.168 238.89C194.739 236.331 192.769 234.091 190.623 232.036C187.738 229.275 184.509 228.432 181.371 231.535C178.292 234.579 178.843 237.805 181.6 240.802C185.093 244.601 188.592 248.397 192.177 252.109C195.705 255.764 199.425 255.651 202.852 251.722C210.075 243.442 217.244 235.114 224.37 226.75C227.549 223.018 227.432 219.231 224.264 216.682C221.365 214.349 217.623 214.978 214.645 218.416C211.702 221.813 208.851 225.288 205.495 229.269ZM213.693 307.467C217.419 303.003 221.127 298.524 224.878 294.08C227.48 290.997 227.31 287.967 224.525 285.229C221.464 282.219 217.583 283.018 214.301 286.987C208.735 293.717 203.108 300.397 196.677 308.091C194.108 305.05 192.213 302.524 190.025 300.286C187.291 297.489 184.053 297.093 181.269 300.042C178.658 302.808 178.566 306.028 181.275 308.974C184.873 312.887 188.469 316.803 192.169 320.618C195.665 324.222 198.963 324.155 202.398 320.377C206.085 316.322 209.62 312.13 213.693 307.467ZM262.461 375.378C271.77 375.385 281.079 375.386 290.388 375.404C294.469 375.411 296.82 372.939 296.959 369.342C297.101 365.646 294.645 363.033 290.704 362.999C276.409 362.874 262.112 362.87 247.817 362.953C243.982 362.976 241.31 365.128 241.253 369.024C241.193 373.18 243.868 375.308 247.997 375.369C252.485 375.436 256.974 375.38 262.461 375.378Z" fill="#FCFCFD"/>
<path d="M281.456 101.414C277.299 107.265 272.81 109.212 267.299 107.814C262.216 106.525 258.621 102.485 257.968 97.3275C257.302 92.0646 259.925 86.776 264.435 84.29C268.493 82.0534 275.389 82.8539 278.989 85.9794C283.089 89.5391 284.005 94.7544 281.456 101.414Z" fill="white"/>
<path d="M200.961 461.211C212.988 461.285 225.016 461.359 237.502 461.325C257.41 461.33 276.861 461.444 296.671 461.801C295.342 462.438 293.654 463.176 291.966 463.178C248.588 463.241 205.21 463.236 161.832 463.183C160.292 463.181 158.754 462.565 157.537 461.872C166.893 461.414 175.927 461.318 184.96 461.222C185.716 461.297 186.471 461.372 188.042 461.458C192.893 461.383 196.927 461.297 200.961 461.211Z" fill="#0B024B"/>
<path d="M197.889 156.836C194.909 159.595 194.376 156.536 194.138 155.022C193.334 149.909 190.348 148.957 185.71 149.139C177.254 149.471 168.771 149.416 160.31 149.153C156.345 149.031 154.382 149.962 154.865 154.321C154.998 155.514 153.97 156.836 153.057 158.155C152.592 155.909 152.349 153.592 152.54 151.31C152.861 147.468 155.071 145.206 158.991 145.182C171.228 145.107 183.466 145.154 195.614 145.154C196.39 149.107 197.107 152.764 197.889 156.836Z" fill="#F5F4F9"/>
<path d="M184.907 460.83C175.927 461.318 166.893 461.414 157.388 461.509C156.801 461.362 156.684 461.215 156.412 460.836C158.491 459.815 160.693 458.478 162.966 458.345C168.595 458.016 174.264 458.072 179.899 458.338C181.58 458.418 183.203 459.705 184.907 460.83Z" fill="#F5F4F9"/>
<path d="M381.28 204.934C380.935 200.539 380.882 195.85 380.911 190.702C381.186 195.042 381.379 199.841 381.28 204.934Z" fill="#0B024B"/>
<path d="M381.255 265.998C380.935 264.839 380.881 263.45 380.909 261.651C381.167 262.751 381.345 264.26 381.255 265.998Z" fill="#0B024B"/>
<path d="M381.182 308.035C380.952 307.803 380.944 307.831 381.161 307.886C381.379 307.942 381.849 307.781 381.849 307.781C381.703 307.943 381.558 308.104 381.182 308.035Z" fill="#F5F4F9"/>
<path d="M437.752 324.135C437.668 324.302 437.388 324.307 437.08 324.114C437.219 323.934 437.388 323.953 437.752 324.135Z" fill="#3A2180"/>
<path d="M265.959 228.068C292.934 228.075 319.41 228.106 345.885 228.059C349.419 228.053 352.729 228.955 352.941 232.7C353.07 234.989 351.167 237.566 349.695 239.679C349.175 240.425 347.226 240.353 345.929 240.355C313.459 240.396 280.989 240.387 248.519 240.421C244.411 240.425 241.737 238.644 241.253 234.507C240.83 230.89 243.959 228.169 248.475 228.087C254.135 227.986 259.797 228.066 265.959 228.068Z" fill="#062156"/>
<path d="M352.809 303.646C350.392 305.142 348.145 307.207 345.884 307.222C313.563 307.442 281.24 307.372 248.918 307.411C244.684 307.416 241.677 305.889 241.281 301.358C240.937 297.431 243.897 294.94 249 294.931C281.155 294.873 313.311 294.866 345.467 294.911C351.498 294.92 353.317 297.093 352.809 303.646Z" fill="#062156"/>
<path d="M202.86 388.311C198.206 392.454 195.43 392.421 191.586 388.332C188.168 384.697 184.808 381.006 181.475 377.293C178.711 374.214 178.507 370.979 181.53 368.009C184.531 365.06 187.592 365.86 190.307 368.54C192.536 370.738 194.602 373.101 197.029 375.7C202.953 368.654 208.485 362.067 214.024 355.486C217.62 351.214 220.975 350.365 224.202 352.895C227.639 355.59 227.516 359.316 223.792 363.704C216.903 371.82 209.993 379.917 202.86 388.311Z" fill="#062156"/>
<path d="M205.727 228.999C208.851 225.289 211.702 221.813 214.645 218.417C217.623 214.979 221.365 214.35 224.264 216.682C227.432 219.232 227.549 223.019 224.37 226.75C217.244 235.115 210.075 243.442 202.852 251.723C199.425 255.652 195.705 255.764 192.177 252.11C188.592 248.398 185.093 244.601 181.6 240.803C178.843 237.805 178.292 234.58 181.371 231.535C184.509 228.432 187.738 229.275 190.623 232.037C192.769 234.092 194.739 236.332 197.168 238.89C200.134 235.464 202.814 232.367 205.727 228.999Z" fill="#062156"/>
<path d="M213.457 307.733C209.62 312.13 206.085 316.323 202.399 320.378C198.963 324.156 195.666 324.222 192.17 320.619C188.469 316.804 184.873 312.888 181.276 308.975C178.567 306.029 178.658 302.809 181.269 300.043C184.053 297.094 187.291 297.489 190.025 300.286C192.214 302.525 194.109 305.051 196.677 308.092C203.109 300.398 208.736 293.718 214.301 286.988C217.583 283.019 221.464 282.22 224.526 285.229C227.31 287.968 227.481 290.998 224.878 294.081C221.128 298.525 217.42 303.004 213.457 307.733Z" fill="#062156"/>
<path d="M261.961 375.378C256.973 375.38 252.484 375.436 247.997 375.37C243.868 375.309 241.193 373.181 241.253 369.025C241.309 365.129 243.982 362.976 247.816 362.954C262.112 362.871 276.408 362.874 290.703 362.999C294.645 363.034 297.101 365.647 296.959 369.342C296.82 372.939 294.469 375.412 290.388 375.404C281.079 375.387 271.769 375.386 261.961 375.378Z" fill="#062156"/>
<path d="M200.906 460.822C196.926 461.297 192.892 461.383 188.408 461.347C190.101 457.338 197.34 456.893 200.906 460.822Z" fill="#F5F4F9"/>
<path d="M300.266 439.201C300.74 440.226 300.868 441.382 300.91 442.89C296.377 442.896 298.604 441.01 300.266 439.201Z" fill="#F5F4F9"/>
<path d="M303.646 386.476C303.841 386.805 303.842 387.401 303.522 388.012C303.285 387.598 303.368 387.171 303.646 386.476Z" fill="#3D2385"/>
<path d="M414.629 461.33C414.363 461.413 414.079 461.194 413.705 460.713C413.947 460.643 414.278 460.835 414.629 461.33Z" fill="#2F1B72"/>
<path d="M413.698 460.277C413.462 460.337 413.167 460.103 412.779 459.595C413.004 459.541 413.322 459.762 413.698 460.277Z" fill="#2F1B72"/>
<path d="M418.508 320.706C418.541 320.761 418.474 320.651 418.508 320.706Z" fill="#43278C"/>
<path d="M304.509 444.701C304.541 444.756 304.477 444.647 304.509 444.701Z" fill="#43278C"/>
<path d="M456.001 141.769C459.362 138.816 460.645 135.013 461.752 131.168C462.909 127.151 463.754 123.047 465.011 119.063C465.378 117.898 466 116 467.567 116C469.135 116 469.954 117.93 470.344 119.138C472.004 124.287 473.255 129.558 474.847 134.729C476.439 139.9 480.091 143.336 485.27 145.16C489.498 146.649 493.849 147.815 498.047 149.373C499.211 149.805 501 150 501 152.034C501 154 499.244 154.317 498.084 154.751C494.441 156.113 490.67 157.162 486.93 158.273C480.199 160.273 475.926 164.583 474.022 171.108C472.799 175.3 471.636 179.509 470.5 183.725C470.071 185.317 469.5 187 467.656 186.938C466 187 465.289 184.909 464.834 183.583C463.203 178.825 462.036 173.918 460.405 169.159C458.701 164.186 455.137 160.799 449.98 159.094C445.724 157.687 441.4 156.46 437.21 154.89C435.958 154.421 434 153.732 434 152.116C434 150.5 435.971 149.769 437.236 149.295C440.971 147.896 444.916 147.022 448.647 145.616C451.162 144.667 453.454 143.165 456.001 141.769Z" fill="#F9FAFD"/>
<path d="M435.88 515.149C395.482 530.662 351.243 519.313 323.076 486.333C287.177 444.3 290.148 382.295 329.9 343.886C367.432 307.623 428.011 306.589 466.669 341.596C487.22 360.207 498.546 383.464 500.695 411.101C504.147 455.499 478.021 498.263 435.88 515.149ZM423.821 399.954C429.733 389.211 430.683 378.262 425.103 367.079C415.548 347.932 391.583 343.904 376.633 359.093C367.089 368.79 364.505 380.464 368.368 393.46C372.132 406.12 382.657 414.826 395.698 415.547C407.922 416.224 417.045 410.458 423.821 399.954ZM411.868 431.049C412.796 430.406 413.724 429.764 414.652 429.121C414.467 428.811 414.283 428.501 414.099 428.19C412.654 427.904 411.213 427.4 409.762 427.367C402.433 427.202 395.088 426.86 387.774 427.173C382.299 427.408 376.728 428.012 371.435 429.374C354.221 433.805 342.015 449.072 341.595 466.043C341.434 472.574 343.869 475.063 350.451 475.062C370.838 475.059 391.225 475.05 411.612 475.044C414.469 475.043 417.33 475.116 420.183 475.003C420.944 474.973 422.006 474.56 422.328 473.984C422.575 473.542 422.036 472.441 421.572 471.851C417.559 466.752 413.358 461.798 409.487 456.595C407.875 454.428 406.42 451.891 405.775 449.302C404.013 442.238 406.922 436.444 411.868 431.049ZM466.372 416.646C465.403 417.54 464.275 418.314 463.491 419.349C459.221 424.982 455.028 430.673 450.824 436.355C447.097 441.39 443.39 446.439 439.552 451.647C438.003 449.687 436.656 447.978 435.306 446.272C433.942 444.55 432.597 442.813 431.206 441.113C428.273 437.526 424.409 436.894 421.206 439.447C417.943 442.049 417.615 446.226 420.439 449.894C424.926 455.719 429.431 461.531 433.954 467.328C437.192 471.479 442.12 471.542 445.28 467.323C455.13 454.175 464.915 440.978 474.68 427.766C476.849 424.83 476.9 421.886 475.104 419.225C473.277 416.517 470.416 415.578 466.372 416.646Z" fill="#013FA8"/>
<path d="M424.588 400.241C417.516 410.762 407.829 416.634 394.849 415.945C381.001 415.211 369.825 406.344 365.829 393.449C361.727 380.212 364.471 368.322 374.605 358.446C390.48 342.976 415.926 347.078 426.073 366.58C431.998 377.969 430.989 389.121 424.588 400.241Z" fill="#FBFCFD"/>
<path d="M411.872 431.1C407.056 436.354 404.141 442.152 405.907 449.221C406.554 451.812 408.012 454.351 409.628 456.519C413.508 461.726 417.72 466.684 421.742 471.786C422.208 472.376 422.748 473.479 422.5 473.921C422.177 474.497 421.113 474.91 420.35 474.941C417.49 475.054 414.622 474.981 411.758 474.982C391.321 474.988 370.884 474.997 350.447 475C343.85 475.001 341.408 472.51 341.57 465.974C341.991 448.991 354.227 433.713 371.483 429.279C376.788 427.915 382.374 427.311 387.861 427.076C395.194 426.763 402.556 427.105 409.904 427.27C411.358 427.303 411.95 427.27 414.062 427.46C415.5 427.504 415.601 428.476 414.805 429.026C413.875 429.669 412.945 430.312 411.872 431.1Z" fill="#FAFBFD"/>
<path d="M467.006 415.399C470.914 414.373 473.831 415.341 475.695 418.135C477.526 420.881 477.474 423.918 475.262 426.947C465.306 440.579 455.328 454.194 445.285 467.759C442.062 472.112 437.037 472.047 433.736 467.764C429.124 461.783 424.531 455.787 419.956 449.777C417.075 445.993 417.41 441.684 420.738 438.999C424.003 436.365 427.943 437.017 430.934 440.718C432.352 442.472 433.724 444.264 435.114 446.04C436.491 447.8 437.865 449.563 439.444 451.586C443.357 446.212 447.138 441.003 450.937 435.809C455.224 429.947 459.499 424.075 463.853 418.264C464.653 417.196 465.5 416 467.006 415.399Z" fill="#F9FAFD"/>
<path d="M319.604 496.17C283.287 496.233 246.97 496.306 210.653 496.354C190.661 496.38 170.63 495.599 150.688 496.597C133.546 497.455 120.933 486.224 121.083 466.959C121.309 438.138 121.085 409.315 121.174 380.493C121.329 330.56 121.609 280.626 121.772 230.693C121.862 203.204 122.276 175.704 121.663 148.229C121.313 132.577 133.284 120.279 149.599 120.376C163.26 120.456 176.922 120.359 190.583 120.319C192.208 120.314 193.832 120.17 195.866 120.07C195.962 117.999 196.056 116.221 196.125 114.442C196.495 105.024 201.198 100.383 210.527 100.33C217.827 100.288 225.128 100.322 233.191 100.322C233.15 85.7698 237.1 73.3022 249.458 64.9894C256.877 59.9987 265.039 57.5195 274.022 58.389C284.335 59.3871 292.594 64.285 299.249 72.0796C306.025 80.0158 307.903 89.4491 307.037 100.284C313.866 100.284 320.121 100.27 326.377 100.286C340.027 100.323 343.54 103.704 343.978 117.165C344.004 117.976 344.146 118.784 344.293 120.129C346.13 120.218 347.887 120.374 349.645 120.378C361.307 120.41 372.97 120.318 384.631 120.44C401.432 120.617 411.43 133.288 411.319 147.185C410.895 200.16 411.05 253.512 410.5 307C402.257 307.678 394.626 307.474 386.419 307.617C384.264 307.662 381.59 307.761 380.927 307.761C380.927 307.561 380.927 307.5 380.927 307.5V305.911L381 304V303L380.887 294V281V267.911V266V260.782L380.891 205L380.89 189.788L380.891 177.195V175.789L381 164L380.894 159.796C380.894 159.796 380.781 154.69 380.724 152.362C380.592 146.947 378.884 145.228 373.533 145.172C369.874 145.134 366.214 145.175 362.554 145.177C356.486 145.179 350.417 145.177 344.371 145.177C344.589 160.616 335.965 164.585 324.757 164.454C287.667 164.023 250.567 164.214 213.472 164.408C206.923 164.442 201.847 162.415 197.889 156.835C197.107 152.764 196.389 149.107 195.614 145.154C183.466 145.154 171.228 145.107 158.991 145.181C155.071 145.205 152.861 147.467 152.54 151.309C152.349 153.591 152.592 155.909 152.508 158.665C152.334 218.912 152.288 278.705 152.254 338.497C152.232 376.305 152.226 414.113 152.218 451.921C152.217 455.432 151.972 459.075 156.411 460.836C156.683 461.215 156.8 461.361 157.065 461.871C158.753 462.565 160.292 463.181 161.831 463.183C205.209 463.236 248.587 463.241 291.965 463.178C293.654 463.176 295.341 462.438 297.364 462.179C303.388 474.643 310.425 486.099 319.604 496.17ZM281.64 101.073C284.005 94.7545 283.089 89.5391 278.989 85.9794C275.389 82.8539 268.493 82.0534 264.435 84.29C259.925 86.7761 257.302 92.0646 257.968 97.3275C258.621 102.485 262.216 106.525 267.3 107.814C272.81 109.212 277.3 107.265 281.64 101.073Z" fill="#062156"/>
</svg>
